<mxfile host="Electron" modified="2024-04-22T16:30:53.271Z" agent="Mozilla/5.0 (Windows NT 10.0; Win64; x64) AppleWebKit/537.36 (KHTML, like Gecko) draw.io/24.2.5 Chrome/120.0.6099.109 Electron/28.1.0 Safari/537.36" etag="f5mnaE_LnupMd3Z9CbUP" version="24.2.5" type="device" pages="2">
  <diagram name="Main Chart" id="l8DM6Htynkrn5BRHhQmk">
    <mxGraphModel dx="1084" dy="814" grid="1" gridSize="10" guides="1" tooltips="1" connect="1" arrows="1" fold="1" page="1" pageScale="1" pageWidth="850" pageHeight="1100" math="0" shadow="0">
      <root>
        <mxCell id="0" />
        <mxCell id="1" parent="0" />
        <mxCell id="mz1Dz_xcRDcmiX9rNROG-15" value="" style="edgeStyle=orthogonalEdgeStyle;rounded=0;orthogonalLoop=1;jettySize=auto;html=1;" parent="1" source="oF0EgJrHqzaaoiZKQG-Q-1" target="mz1Dz_xcRDcmiX9rNROG-13" edge="1">
          <mxGeometry relative="1" as="geometry" />
        </mxCell>
        <mxCell id="oF0EgJrHqzaaoiZKQG-Q-1" value="Start" style="ellipse;whiteSpace=wrap;html=1;" parent="1" vertex="1">
          <mxGeometry width="120" height="80" as="geometry" />
        </mxCell>
        <mxCell id="oF0EgJrHqzaaoiZKQG-Q-48" value="" style="edgeStyle=orthogonalEdgeStyle;rounded=0;orthogonalLoop=1;jettySize=auto;html=1;" parent="1" edge="1">
          <mxGeometry relative="1" as="geometry">
            <mxPoint x="80" y="810" as="targetPoint" />
          </mxGeometry>
        </mxCell>
        <mxCell id="P9xloDru6htHzliWN8LX-43" style="edgeStyle=orthogonalEdgeStyle;rounded=0;orthogonalLoop=1;jettySize=auto;html=1;" parent="1" source="oF0EgJrHqzaaoiZKQG-Q-68" edge="1">
          <mxGeometry relative="1" as="geometry">
            <mxPoint x="300" y="520" as="targetPoint" />
            <Array as="points">
              <mxPoint x="285" y="560" />
              <mxPoint x="285" y="540" />
              <mxPoint x="301" y="540" />
            </Array>
          </mxGeometry>
        </mxCell>
        <mxCell id="oF0EgJrHqzaaoiZKQG-Q-68" value="walk to where the jelly is (since it&#39;s already prepped, that knowledge is know)" style="whiteSpace=wrap;html=1;" parent="1" vertex="1">
          <mxGeometry x="300" y="530" width="120" height="60" as="geometry" />
        </mxCell>
        <mxCell id="mz1Dz_xcRDcmiX9rNROG-23" value="no" style="edgeStyle=orthogonalEdgeStyle;rounded=0;orthogonalLoop=1;jettySize=auto;html=1;" parent="1" source="mz1Dz_xcRDcmiX9rNROG-6" target="mz1Dz_xcRDcmiX9rNROG-22" edge="1">
          <mxGeometry relative="1" as="geometry" />
        </mxCell>
        <mxCell id="mz1Dz_xcRDcmiX9rNROG-6" value="Am I further than 8 centimeters from counter?" style="rhombus;whiteSpace=wrap;html=1;" parent="1" vertex="1">
          <mxGeometry x="310" width="155" height="120" as="geometry" />
        </mxCell>
        <mxCell id="mz1Dz_xcRDcmiX9rNROG-16" value="Yes" style="edgeStyle=orthogonalEdgeStyle;rounded=0;orthogonalLoop=1;jettySize=auto;html=1;" parent="1" source="mz1Dz_xcRDcmiX9rNROG-13" target="mz1Dz_xcRDcmiX9rNROG-6" edge="1">
          <mxGeometry relative="1" as="geometry" />
        </mxCell>
        <mxCell id="AksjCZnmNeCZIjjRbnBu-7" value="no" style="edgeStyle=orthogonalEdgeStyle;rounded=0;orthogonalLoop=1;jettySize=auto;html=1;entryX=0;entryY=0.5;entryDx=0;entryDy=0;" parent="1" source="mz1Dz_xcRDcmiX9rNROG-13" target="mz1Dz_xcRDcmiX9rNROG-18" edge="1">
          <mxGeometry relative="1" as="geometry" />
        </mxCell>
        <mxCell id="mz1Dz_xcRDcmiX9rNROG-13" value="Are you faceing the counter?" style="rhombus;whiteSpace=wrap;html=1;" parent="1" vertex="1">
          <mxGeometry x="150" width="120" height="120" as="geometry" />
        </mxCell>
        <mxCell id="AksjCZnmNeCZIjjRbnBu-8" value="yes" style="edgeStyle=orthogonalEdgeStyle;rounded=0;orthogonalLoop=1;jettySize=auto;html=1;entryX=0.5;entryY=1;entryDx=0;entryDy=0;" parent="1" source="mz1Dz_xcRDcmiX9rNROG-18" target="mz1Dz_xcRDcmiX9rNROG-6" edge="1">
          <mxGeometry x="-0.403" relative="1" as="geometry">
            <mxPoint as="offset" />
          </mxGeometry>
        </mxCell>
        <mxCell id="mz1Dz_xcRDcmiX9rNROG-18" value="Turn to face counter" style="whiteSpace=wrap;html=1;" parent="1" vertex="1">
          <mxGeometry x="230" y="130" width="120" height="60" as="geometry" />
        </mxCell>
        <mxCell id="mz1Dz_xcRDcmiX9rNROG-25" value="" style="edgeStyle=orthogonalEdgeStyle;rounded=0;orthogonalLoop=1;jettySize=auto;html=1;" parent="1" source="mz1Dz_xcRDcmiX9rNROG-22" target="mz1Dz_xcRDcmiX9rNROG-24" edge="1">
          <mxGeometry relative="1" as="geometry" />
        </mxCell>
        <mxCell id="mz1Dz_xcRDcmiX9rNROG-22" value="Walk to counter, avoiding obstacles as necessary" style="whiteSpace=wrap;html=1;" parent="1" vertex="1">
          <mxGeometry x="530" y="30" width="120" height="60" as="geometry" />
        </mxCell>
        <mxCell id="mz1Dz_xcRDcmiX9rNROG-32" value="yes" style="edgeStyle=orthogonalEdgeStyle;rounded=0;orthogonalLoop=1;jettySize=auto;html=1;exitX=0;exitY=1;exitDx=0;exitDy=0;entryX=1;entryY=0.25;entryDx=0;entryDy=0;" parent="1" source="mz1Dz_xcRDcmiX9rNROG-24" target="mz1Dz_xcRDcmiX9rNROG-30" edge="1">
          <mxGeometry relative="1" as="geometry" />
        </mxCell>
        <mxCell id="AksjCZnmNeCZIjjRbnBu-3" value="no" style="edgeStyle=orthogonalEdgeStyle;rounded=0;orthogonalLoop=1;jettySize=auto;html=1;" parent="1" source="mz1Dz_xcRDcmiX9rNROG-24" target="AksjCZnmNeCZIjjRbnBu-2" edge="1">
          <mxGeometry relative="1" as="geometry" />
        </mxCell>
        <mxCell id="mz1Dz_xcRDcmiX9rNROG-24" value="is there a paper plate within arms reach" style="rhombus;whiteSpace=wrap;html=1;" parent="1" vertex="1">
          <mxGeometry x="710" y="15" width="90" height="90" as="geometry" />
        </mxCell>
        <mxCell id="mz1Dz_xcRDcmiX9rNROG-30" value="move left hand over plate" style="whiteSpace=wrap;html=1;" parent="1" vertex="1">
          <mxGeometry x="530" y="100" width="120" height="60" as="geometry" />
        </mxCell>
        <mxCell id="P9xloDru6htHzliWN8LX-30" value="no" style="edgeStyle=orthogonalEdgeStyle;rounded=0;orthogonalLoop=1;jettySize=auto;html=1;" parent="1" source="mz1Dz_xcRDcmiX9rNROG-56" target="mz1Dz_xcRDcmiX9rNROG-70" edge="1">
          <mxGeometry relative="1" as="geometry" />
        </mxCell>
        <mxCell id="P9xloDru6htHzliWN8LX-31" value="yes" style="edgeStyle=orthogonalEdgeStyle;rounded=0;orthogonalLoop=1;jettySize=auto;html=1;entryX=0.25;entryY=0;entryDx=0;entryDy=0;" parent="1" source="mz1Dz_xcRDcmiX9rNROG-56" target="mz1Dz_xcRDcmiX9rNROG-76" edge="1">
          <mxGeometry relative="1" as="geometry" />
        </mxCell>
        <mxCell id="mz1Dz_xcRDcmiX9rNROG-56" value="currently near plate?" style="rhombus;whiteSpace=wrap;html=1;" parent="1" vertex="1">
          <mxGeometry x="10" y="520" width="80" height="80" as="geometry" />
        </mxCell>
        <mxCell id="P9xloDru6htHzliWN8LX-53" style="edgeStyle=orthogonalEdgeStyle;rounded=0;orthogonalLoop=1;jettySize=auto;html=1;" parent="1" source="mz1Dz_xcRDcmiX9rNROG-70" target="mz1Dz_xcRDcmiX9rNROG-93" edge="1">
          <mxGeometry relative="1" as="geometry">
            <Array as="points">
              <mxPoint x="60" y="780" />
            </Array>
          </mxGeometry>
        </mxCell>
        <mxCell id="mz1Dz_xcRDcmiX9rNROG-70" value="maintaining the jars orientation, walk back to plate, ensureing the top (where the lid screws on) is never more than 45 degrees away from verticle" style="whiteSpace=wrap;html=1;" parent="1" vertex="1">
          <mxGeometry y="630" width="120" height="110" as="geometry" />
        </mxCell>
        <mxCell id="P9xloDru6htHzliWN8LX-32" value="" style="edgeStyle=orthogonalEdgeStyle;rounded=0;orthogonalLoop=1;jettySize=auto;html=1;" parent="1" source="mz1Dz_xcRDcmiX9rNROG-76" target="mz1Dz_xcRDcmiX9rNROG-93" edge="1">
          <mxGeometry relative="1" as="geometry" />
        </mxCell>
        <mxCell id="mz1Dz_xcRDcmiX9rNROG-76" value="stand right in front of plate, maintaining a verticle orientation with the lid/ opening pointing up" style="whiteSpace=wrap;html=1;" parent="1" vertex="1">
          <mxGeometry x="140" y="625" width="120" height="75" as="geometry" />
        </mxCell>
        <mxCell id="P9xloDru6htHzliWN8LX-35" value="" style="edgeStyle=orthogonalEdgeStyle;rounded=0;orthogonalLoop=1;jettySize=auto;html=1;" parent="1" source="mz1Dz_xcRDcmiX9rNROG-80" target="mz1Dz_xcRDcmiX9rNROG-82" edge="1">
          <mxGeometry relative="1" as="geometry" />
        </mxCell>
        <mxCell id="mz1Dz_xcRDcmiX9rNROG-80" value="move hand so the jar is 5 centimeters to the left of the plate" style="whiteSpace=wrap;html=1;" parent="1" vertex="1">
          <mxGeometry x="300" y="610" width="120" height="60" as="geometry" />
        </mxCell>
        <mxCell id="P9xloDru6htHzliWN8LX-34" value="" style="edgeStyle=orthogonalEdgeStyle;rounded=0;orthogonalLoop=1;jettySize=auto;html=1;" parent="1" source="mz1Dz_xcRDcmiX9rNROG-82" target="P9xloDru6htHzliWN8LX-33" edge="1">
          <mxGeometry relative="1" as="geometry" />
        </mxCell>
        <mxCell id="mz1Dz_xcRDcmiX9rNROG-82" value="move hand down untill jar is 50 milimeters above counter" style="whiteSpace=wrap;html=1;" parent="1" vertex="1">
          <mxGeometry x="465" y="610" width="120" height="60" as="geometry" />
        </mxCell>
        <mxCell id="mz1Dz_xcRDcmiX9rNROG-95" style="edgeStyle=orthogonalEdgeStyle;rounded=0;orthogonalLoop=1;jettySize=auto;html=1;" parent="1" source="mz1Dz_xcRDcmiX9rNROG-93" target="mz1Dz_xcRDcmiX9rNROG-80" edge="1">
          <mxGeometry relative="1" as="geometry">
            <Array as="points">
              <mxPoint x="280" y="760" />
              <mxPoint x="280" y="640" />
            </Array>
          </mxGeometry>
        </mxCell>
        <mxCell id="mz1Dz_xcRDcmiX9rNROG-93" value="move hand to where the part of the jar clossest to the counters edge is 7 to 10 centimeters away" style="whiteSpace=wrap;html=1;" parent="1" vertex="1">
          <mxGeometry x="140" y="720" width="120" height="80" as="geometry" />
        </mxCell>
        <mxCell id="P9xloDru6htHzliWN8LX-71" style="edgeStyle=orthogonalEdgeStyle;rounded=0;orthogonalLoop=1;jettySize=auto;html=1;" parent="1" source="mz1Dz_xcRDcmiX9rNROG-96" target="P9xloDru6htHzliWN8LX-44" edge="1">
          <mxGeometry relative="1" as="geometry">
            <Array as="points">
              <mxPoint x="400" y="770" />
              <mxPoint x="750" y="770" />
            </Array>
          </mxGeometry>
        </mxCell>
        <mxCell id="mz1Dz_xcRDcmiX9rNROG-96" value="release jar" style="whiteSpace=wrap;html=1;" parent="1" vertex="1">
          <mxGeometry x="340" y="700" width="120" height="60" as="geometry" />
        </mxCell>
        <mxCell id="AksjCZnmNeCZIjjRbnBu-4" style="edgeStyle=orthogonalEdgeStyle;rounded=0;orthogonalLoop=1;jettySize=auto;html=1;" parent="1" source="AksjCZnmNeCZIjjRbnBu-2" target="mz1Dz_xcRDcmiX9rNROG-30" edge="1">
          <mxGeometry relative="1" as="geometry" />
        </mxCell>
        <mxCell id="AksjCZnmNeCZIjjRbnBu-12" value="" style="edgeStyle=orthogonalEdgeStyle;rounded=0;orthogonalLoop=1;jettySize=auto;html=1;" parent="1" source="AksjCZnmNeCZIjjRbnBu-2" target="AksjCZnmNeCZIjjRbnBu-11" edge="1">
          <mxGeometry relative="1" as="geometry">
            <Array as="points">
              <mxPoint x="810" y="210" />
              <mxPoint x="810" y="210" />
            </Array>
          </mxGeometry>
        </mxCell>
        <mxCell id="AksjCZnmNeCZIjjRbnBu-2" value="walk to stack of paper plates" style="whiteSpace=wrap;html=1;" parent="1" vertex="1">
          <mxGeometry x="720" y="140" width="120" height="60" as="geometry" />
        </mxCell>
        <mxCell id="P9xloDru6htHzliWN8LX-6" value="" style="edgeStyle=orthogonalEdgeStyle;rounded=0;orthogonalLoop=1;jettySize=auto;html=1;" parent="1" source="AksjCZnmNeCZIjjRbnBu-9" target="P9xloDru6htHzliWN8LX-5" edge="1">
          <mxGeometry relative="1" as="geometry" />
        </mxCell>
        <UserObject label="G&lt;span style=&quot;font-size: 10px;&quot;&gt;1&lt;/span&gt;" id="AksjCZnmNeCZIjjRbnBu-9">
          <mxCell style="shape=offPageConnector;whiteSpace=wrap;html=1;" parent="1" vertex="1">
            <mxGeometry x="420" y="100" width="80" height="80" as="geometry" />
          </mxCell>
        </UserObject>
        <mxCell id="AksjCZnmNeCZIjjRbnBu-13" value="yes" style="edgeStyle=orthogonalEdgeStyle;rounded=0;orthogonalLoop=1;jettySize=auto;html=1;" parent="1" source="AksjCZnmNeCZIjjRbnBu-11" target="mz1Dz_xcRDcmiX9rNROG-30" edge="1">
          <mxGeometry relative="1" as="geometry">
            <Array as="points">
              <mxPoint x="780" y="210" />
              <mxPoint x="650" y="210" />
            </Array>
          </mxGeometry>
        </mxCell>
        <mxCell id="AksjCZnmNeCZIjjRbnBu-16" value="no" style="edgeStyle=orthogonalEdgeStyle;rounded=0;orthogonalLoop=1;jettySize=auto;html=1;entryX=1;entryY=0.5;entryDx=0;entryDy=0;" parent="1" source="AksjCZnmNeCZIjjRbnBu-11" target="AksjCZnmNeCZIjjRbnBu-15" edge="1">
          <mxGeometry relative="1" as="geometry">
            <Array as="points">
              <mxPoint x="630" y="250" />
            </Array>
          </mxGeometry>
        </mxCell>
        <mxCell id="AksjCZnmNeCZIjjRbnBu-11" value="can reach plates?" style="rhombus;whiteSpace=wrap;html=1;" parent="1" vertex="1">
          <mxGeometry x="740" y="230" width="80" height="80" as="geometry" />
        </mxCell>
        <mxCell id="AksjCZnmNeCZIjjRbnBu-24" style="edgeStyle=orthogonalEdgeStyle;rounded=0;orthogonalLoop=1;jettySize=auto;html=1;exitX=1;exitY=0.75;exitDx=0;exitDy=0;entryX=0;entryY=0.5;entryDx=0;entryDy=0;" parent="1" source="AksjCZnmNeCZIjjRbnBu-15" target="AksjCZnmNeCZIjjRbnBu-11" edge="1">
          <mxGeometry relative="1" as="geometry">
            <Array as="points">
              <mxPoint x="620" y="270" />
            </Array>
          </mxGeometry>
        </mxCell>
        <mxCell id="AksjCZnmNeCZIjjRbnBu-15" value="walk to plates" style="rounded=0;whiteSpace=wrap;html=1;" parent="1" vertex="1">
          <mxGeometry x="510" y="220" width="120" height="60" as="geometry" />
        </mxCell>
        <mxCell id="AksjCZnmNeCZIjjRbnBu-25" style="edgeStyle=orthogonalEdgeStyle;rounded=0;orthogonalLoop=1;jettySize=auto;html=1;entryX=1.025;entryY=0.4;entryDx=0;entryDy=0;entryPerimeter=0;" parent="1" source="mz1Dz_xcRDcmiX9rNROG-30" target="AksjCZnmNeCZIjjRbnBu-9" edge="1">
          <mxGeometry relative="1" as="geometry" />
        </mxCell>
        <mxCell id="P9xloDru6htHzliWN8LX-8" value="" style="edgeStyle=orthogonalEdgeStyle;rounded=0;orthogonalLoop=1;jettySize=auto;html=1;" parent="1" source="P9xloDru6htHzliWN8LX-5" target="P9xloDru6htHzliWN8LX-7" edge="1">
          <mxGeometry relative="1" as="geometry" />
        </mxCell>
        <mxCell id="P9xloDru6htHzliWN8LX-5" value="find clear spot on the counter/ table" style="whiteSpace=wrap;html=1;" parent="1" vertex="1">
          <mxGeometry x="370" y="220" width="120" height="60" as="geometry" />
        </mxCell>
        <mxCell id="P9xloDru6htHzliWN8LX-10" value="" style="edgeStyle=orthogonalEdgeStyle;rounded=0;orthogonalLoop=1;jettySize=auto;html=1;" parent="1" source="P9xloDru6htHzliWN8LX-7" target="P9xloDru6htHzliWN8LX-9" edge="1">
          <mxGeometry relative="1" as="geometry" />
        </mxCell>
        <mxCell id="P9xloDru6htHzliWN8LX-7" value="walk to clear spot" style="whiteSpace=wrap;html=1;" parent="1" vertex="1">
          <mxGeometry x="210" y="220" width="120" height="60" as="geometry" />
        </mxCell>
        <mxCell id="P9xloDru6htHzliWN8LX-12" value="" style="edgeStyle=orthogonalEdgeStyle;rounded=0;orthogonalLoop=1;jettySize=auto;html=1;" parent="1" source="P9xloDru6htHzliWN8LX-9" target="P9xloDru6htHzliWN8LX-11" edge="1">
          <mxGeometry relative="1" as="geometry" />
        </mxCell>
        <mxCell id="P9xloDru6htHzliWN8LX-9" value="move hand so plate is over counter" style="whiteSpace=wrap;html=1;" parent="1" vertex="1">
          <mxGeometry x="60" y="220" width="120" height="60" as="geometry" />
        </mxCell>
        <mxCell id="P9xloDru6htHzliWN8LX-14" value="" style="edgeStyle=orthogonalEdgeStyle;rounded=0;orthogonalLoop=1;jettySize=auto;html=1;" parent="1" source="P9xloDru6htHzliWN8LX-11" target="P9xloDru6htHzliWN8LX-13" edge="1">
          <mxGeometry relative="1" as="geometry" />
        </mxCell>
        <mxCell id="P9xloDru6htHzliWN8LX-11" value="lower plate down" style="whiteSpace=wrap;html=1;" parent="1" vertex="1">
          <mxGeometry x="60" y="320" width="120" height="60" as="geometry" />
        </mxCell>
        <mxCell id="P9xloDru6htHzliWN8LX-16" value="" style="edgeStyle=orthogonalEdgeStyle;rounded=0;orthogonalLoop=1;jettySize=auto;html=1;" parent="1" source="P9xloDru6htHzliWN8LX-13" target="P9xloDru6htHzliWN8LX-15" edge="1">
          <mxGeometry relative="1" as="geometry" />
        </mxCell>
        <mxCell id="P9xloDru6htHzliWN8LX-13" value="when 2cm above counter, tilt hands&amp;nbsp; clockwise untill fingers are touching counter" style="whiteSpace=wrap;html=1;" parent="1" vertex="1">
          <mxGeometry x="240" y="310" width="120" height="80" as="geometry" />
        </mxCell>
        <mxCell id="P9xloDru6htHzliWN8LX-20" value="" style="edgeStyle=orthogonalEdgeStyle;rounded=0;orthogonalLoop=1;jettySize=auto;html=1;" parent="1" source="P9xloDru6htHzliWN8LX-15" target="P9xloDru6htHzliWN8LX-19" edge="1">
          <mxGeometry relative="1" as="geometry" />
        </mxCell>
        <mxCell id="P9xloDru6htHzliWN8LX-15" value="release your right hand, and pull it to the side such that it is no longer underneath the plate" style="whiteSpace=wrap;html=1;" parent="1" vertex="1">
          <mxGeometry x="400" y="310" width="120" height="80" as="geometry" />
        </mxCell>
        <mxCell id="P9xloDru6htHzliWN8LX-23" style="edgeStyle=orthogonalEdgeStyle;rounded=0;orthogonalLoop=1;jettySize=auto;html=1;" parent="1" source="P9xloDru6htHzliWN8LX-17" target="P9xloDru6htHzliWN8LX-22" edge="1">
          <mxGeometry relative="1" as="geometry">
            <Array as="points">
              <mxPoint x="770" y="505" />
            </Array>
          </mxGeometry>
        </mxCell>
        <mxCell id="P9xloDru6htHzliWN8LX-17" value="put hands on top of plate, and shift it so that there is 3 cm between the outermost edge of the plate and the edge of the counter" style="whiteSpace=wrap;html=1;" parent="1" vertex="1">
          <mxGeometry x="710" y="320" width="120" height="110" as="geometry" />
        </mxCell>
        <mxCell id="P9xloDru6htHzliWN8LX-21" style="edgeStyle=orthogonalEdgeStyle;rounded=0;orthogonalLoop=1;jettySize=auto;html=1;" parent="1" source="P9xloDru6htHzliWN8LX-19" target="P9xloDru6htHzliWN8LX-17" edge="1">
          <mxGeometry relative="1" as="geometry" />
        </mxCell>
        <mxCell id="P9xloDru6htHzliWN8LX-19" value="release left hand from object" style="whiteSpace=wrap;html=1;" parent="1" vertex="1">
          <mxGeometry x="540" y="320" width="120" height="60" as="geometry" />
        </mxCell>
        <mxCell id="P9xloDru6htHzliWN8LX-24" value="no" style="edgeStyle=orthogonalEdgeStyle;rounded=0;orthogonalLoop=1;jettySize=auto;html=1;" parent="1" source="P9xloDru6htHzliWN8LX-22" target="oF0EgJrHqzaaoiZKQG-Q-68" edge="1">
          <mxGeometry relative="1" as="geometry">
            <Array as="points">
              <mxPoint x="490" y="530" />
              <mxPoint x="490" y="530" />
            </Array>
          </mxGeometry>
        </mxCell>
        <mxCell id="P9xloDru6htHzliWN8LX-22" value="is there a non-empty (at least 10% full) jar of jelly within arms reach?" style="rhombus;whiteSpace=wrap;html=1;" parent="1" vertex="1">
          <mxGeometry x="440" y="380" width="230" height="210" as="geometry" />
        </mxCell>
        <mxCell id="P9xloDru6htHzliWN8LX-29" style="edgeStyle=orthogonalEdgeStyle;rounded=0;orthogonalLoop=1;jettySize=auto;html=1;" parent="1" source="P9xloDru6htHzliWN8LX-26" target="mz1Dz_xcRDcmiX9rNROG-56" edge="1">
          <mxGeometry relative="1" as="geometry">
            <Array as="points">
              <mxPoint x="120" y="500" />
              <mxPoint x="120" y="480" />
              <mxPoint x="50" y="480" />
            </Array>
          </mxGeometry>
        </mxCell>
        <UserObject label="G&lt;span style=&quot;font-size: 10px;&quot;&gt;1&lt;/span&gt;" id="P9xloDru6htHzliWN8LX-26">
          <mxCell style="shape=offPageConnector;whiteSpace=wrap;html=1;" parent="1" vertex="1">
            <mxGeometry x="150" y="460" width="80" height="80" as="geometry" />
          </mxCell>
        </UserObject>
        <mxCell id="P9xloDru6htHzliWN8LX-37" value="" style="edgeStyle=orthogonalEdgeStyle;rounded=0;orthogonalLoop=1;jettySize=auto;html=1;" parent="1" source="P9xloDru6htHzliWN8LX-33" target="P9xloDru6htHzliWN8LX-36" edge="1">
          <mxGeometry relative="1" as="geometry">
            <Array as="points">
              <mxPoint x="720" y="630" />
              <mxPoint x="720" y="630" />
            </Array>
          </mxGeometry>
        </mxCell>
        <mxCell id="P9xloDru6htHzliWN8LX-33" value="release right hand" style="whiteSpace=wrap;html=1;" parent="1" vertex="1">
          <mxGeometry x="630" y="520" width="120" height="60" as="geometry" />
        </mxCell>
        <mxCell id="P9xloDru6htHzliWN8LX-69" style="edgeStyle=orthogonalEdgeStyle;rounded=0;orthogonalLoop=1;jettySize=auto;html=1;entryX=1;entryY=0.5;entryDx=0;entryDy=0;" parent="1" source="P9xloDru6htHzliWN8LX-36" target="P9xloDru6htHzliWN8LX-38" edge="1">
          <mxGeometry relative="1" as="geometry" />
        </mxCell>
        <mxCell id="P9xloDru6htHzliWN8LX-36" value="move right hand to the right untill not under jar" style="whiteSpace=wrap;html=1;" parent="1" vertex="1">
          <mxGeometry x="680" y="660" width="120" height="60" as="geometry" />
        </mxCell>
        <mxCell id="P9xloDru6htHzliWN8LX-76" value="" style="edgeStyle=orthogonalEdgeStyle;rounded=0;orthogonalLoop=1;jettySize=auto;html=1;" parent="1" source="P9xloDru6htHzliWN8LX-38" target="mz1Dz_xcRDcmiX9rNROG-96" edge="1">
          <mxGeometry relative="1" as="geometry" />
        </mxCell>
        <mxCell id="P9xloDru6htHzliWN8LX-38" value="move jar down untill on counter" style="whiteSpace=wrap;html=1;" parent="1" vertex="1">
          <mxGeometry x="510" y="690" width="120" height="60" as="geometry" />
        </mxCell>
        <mxCell id="P9xloDru6htHzliWN8LX-41" value="yes" style="edgeStyle=orthogonalEdgeStyle;rounded=0;orthogonalLoop=1;jettySize=auto;html=1;" parent="1" source="P9xloDru6htHzliWN8LX-22" target="P9xloDru6htHzliWN8LX-40" edge="1">
          <mxGeometry relative="1" as="geometry">
            <mxPoint x="220" y="485" as="targetPoint" />
            <mxPoint x="460" y="485" as="sourcePoint" />
          </mxGeometry>
        </mxCell>
        <mxCell id="P9xloDru6htHzliWN8LX-42" value="" style="edgeStyle=orthogonalEdgeStyle;rounded=0;orthogonalLoop=1;jettySize=auto;html=1;" parent="1" source="P9xloDru6htHzliWN8LX-40" target="P9xloDru6htHzliWN8LX-26" edge="1">
          <mxGeometry relative="1" as="geometry" />
        </mxCell>
        <mxCell id="P9xloDru6htHzliWN8LX-40" value="move left hand over jar" style="whiteSpace=wrap;html=1;" parent="1" vertex="1">
          <mxGeometry x="280" y="455" width="120" height="60" as="geometry" />
        </mxCell>
        <mxCell id="P9xloDru6htHzliWN8LX-48" value="yes" style="edgeStyle=orthogonalEdgeStyle;rounded=0;orthogonalLoop=1;jettySize=auto;html=1;entryX=1;entryY=0.5;entryDx=0;entryDy=0;" parent="1" source="P9xloDru6htHzliWN8LX-44" target="P9xloDru6htHzliWN8LX-47" edge="1">
          <mxGeometry relative="1" as="geometry" />
        </mxCell>
        <mxCell id="P9xloDru6htHzliWN8LX-49" value="no" style="edgeStyle=orthogonalEdgeStyle;rounded=0;orthogonalLoop=1;jettySize=auto;html=1;" parent="1" source="P9xloDru6htHzliWN8LX-44" target="P9xloDru6htHzliWN8LX-46" edge="1">
          <mxGeometry relative="1" as="geometry">
            <Array as="points">
              <mxPoint x="670" y="870" />
              <mxPoint x="670" y="900" />
            </Array>
          </mxGeometry>
        </mxCell>
        <mxCell id="P9xloDru6htHzliWN8LX-44" value="is there a bag of bread near me?" style="rhombus;whiteSpace=wrap;html=1;" parent="1" vertex="1">
          <mxGeometry x="700" y="790" width="100" height="80" as="geometry" />
        </mxCell>
        <mxCell id="P9xloDru6htHzliWN8LX-50" value="" style="edgeStyle=orthogonalEdgeStyle;rounded=0;orthogonalLoop=1;jettySize=auto;html=1;" parent="1" source="P9xloDru6htHzliWN8LX-46" target="P9xloDru6htHzliWN8LX-47" edge="1">
          <mxGeometry relative="1" as="geometry" />
        </mxCell>
        <mxCell id="P9xloDru6htHzliWN8LX-46" value="walk to where the bread is (since it&#39;s already prepped, that knowledge is know)" style="whiteSpace=wrap;html=1;" parent="1" vertex="1">
          <mxGeometry x="520" y="860" width="120" height="60" as="geometry" />
        </mxCell>
        <mxCell id="P9xloDru6htHzliWN8LX-52" value="" style="edgeStyle=orthogonalEdgeStyle;rounded=0;orthogonalLoop=1;jettySize=auto;html=1;" parent="1" source="P9xloDru6htHzliWN8LX-47" target="P9xloDru6htHzliWN8LX-51" edge="1">
          <mxGeometry relative="1" as="geometry" />
        </mxCell>
        <mxCell id="P9xloDru6htHzliWN8LX-47" value="move left hand over bread" style="whiteSpace=wrap;html=1;" parent="1" vertex="1">
          <mxGeometry x="520" y="780" width="120" height="60" as="geometry" />
        </mxCell>
        <mxCell id="P9xloDru6htHzliWN8LX-55" value="" style="edgeStyle=orthogonalEdgeStyle;rounded=0;orthogonalLoop=1;jettySize=auto;html=1;" parent="1" source="P9xloDru6htHzliWN8LX-51" target="P9xloDru6htHzliWN8LX-54" edge="1">
          <mxGeometry relative="1" as="geometry" />
        </mxCell>
        <UserObject label="G&lt;span style=&quot;font-size: 10px;&quot;&gt;1&lt;/span&gt;" id="P9xloDru6htHzliWN8LX-51">
          <mxCell style="shape=offPageConnector;whiteSpace=wrap;html=1;" parent="1" vertex="1">
            <mxGeometry x="390" y="780" width="80" height="80" as="geometry" />
          </mxCell>
        </UserObject>
        <mxCell id="P9xloDru6htHzliWN8LX-58" value="no" style="edgeStyle=orthogonalEdgeStyle;rounded=0;orthogonalLoop=1;jettySize=auto;html=1;" parent="1" source="P9xloDru6htHzliWN8LX-54" target="P9xloDru6htHzliWN8LX-57" edge="1">
          <mxGeometry relative="1" as="geometry" />
        </mxCell>
        <mxCell id="P9xloDru6htHzliWN8LX-61" value="yes" style="edgeStyle=orthogonalEdgeStyle;rounded=0;orthogonalLoop=1;jettySize=auto;html=1;" parent="1" source="P9xloDru6htHzliWN8LX-54" target="P9xloDru6htHzliWN8LX-59" edge="1">
          <mxGeometry relative="1" as="geometry" />
        </mxCell>
        <mxCell id="P9xloDru6htHzliWN8LX-54" value="currently near plate?" style="rhombus;whiteSpace=wrap;html=1;" parent="1" vertex="1">
          <mxGeometry x="260" y="780" width="80" height="80" as="geometry" />
        </mxCell>
        <mxCell id="P9xloDru6htHzliWN8LX-63" value="" style="edgeStyle=orthogonalEdgeStyle;rounded=0;orthogonalLoop=1;jettySize=auto;html=1;" parent="1" source="P9xloDru6htHzliWN8LX-57" target="P9xloDru6htHzliWN8LX-62" edge="1">
          <mxGeometry relative="1" as="geometry" />
        </mxCell>
        <mxCell id="P9xloDru6htHzliWN8LX-57" value="walk to plate" style="whiteSpace=wrap;html=1;" parent="1" vertex="1">
          <mxGeometry x="240" y="900" width="120" height="60" as="geometry" />
        </mxCell>
        <mxCell id="P9xloDru6htHzliWN8LX-64" value="" style="edgeStyle=orthogonalEdgeStyle;rounded=0;orthogonalLoop=1;jettySize=auto;html=1;" parent="1" source="P9xloDru6htHzliWN8LX-59" target="P9xloDru6htHzliWN8LX-62" edge="1">
          <mxGeometry relative="1" as="geometry" />
        </mxCell>
        <mxCell id="P9xloDru6htHzliWN8LX-59" value="stand right in front of plate" style="whiteSpace=wrap;html=1;" parent="1" vertex="1">
          <mxGeometry x="60" y="810" width="120" height="75" as="geometry" />
        </mxCell>
        <mxCell id="P9xloDru6htHzliWN8LX-66" style="edgeStyle=orthogonalEdgeStyle;rounded=0;orthogonalLoop=1;jettySize=auto;html=1;" parent="1" source="P9xloDru6htHzliWN8LX-62" target="P9xloDru6htHzliWN8LX-65" edge="1">
          <mxGeometry relative="1" as="geometry">
            <Array as="points">
              <mxPoint x="205" y="990" />
              <mxPoint x="205" y="1000" />
            </Array>
          </mxGeometry>
        </mxCell>
        <mxCell id="P9xloDru6htHzliWN8LX-62" value="move hand to where the part of the bag clossest to the counters edge is 7 to 10 centimeters away from said edge" style="whiteSpace=wrap;html=1;" parent="1" vertex="1">
          <mxGeometry x="50" y="920" width="120" height="80" as="geometry" />
        </mxCell>
        <mxCell id="P9xloDru6htHzliWN8LX-68" value="" style="edgeStyle=orthogonalEdgeStyle;rounded=0;orthogonalLoop=1;jettySize=auto;html=1;" parent="1" source="P9xloDru6htHzliWN8LX-65" target="P9xloDru6htHzliWN8LX-67" edge="1">
          <mxGeometry relative="1" as="geometry">
            <Array as="points">
              <mxPoint x="390" y="1000" />
            </Array>
          </mxGeometry>
        </mxCell>
        <mxCell id="P9xloDru6htHzliWN8LX-65" value="move hand so the jar is 5 centimeters to the right of the plate" style="whiteSpace=wrap;html=1;" parent="1" vertex="1">
          <mxGeometry x="240" y="970" width="120" height="60" as="geometry" />
        </mxCell>
        <mxCell id="P9xloDru6htHzliWN8LX-74" value="" style="edgeStyle=orthogonalEdgeStyle;rounded=0;orthogonalLoop=1;jettySize=auto;html=1;" parent="1" source="P9xloDru6htHzliWN8LX-67" target="P9xloDru6htHzliWN8LX-72" edge="1">
          <mxGeometry relative="1" as="geometry" />
        </mxCell>
        <mxCell id="P9xloDru6htHzliWN8LX-67" value="move hand down untill bread is 50 milimeters above counter" style="whiteSpace=wrap;html=1;" parent="1" vertex="1">
          <mxGeometry x="380" y="870" width="120" height="60" as="geometry" />
        </mxCell>
        <mxCell id="P9xloDru6htHzliWN8LX-75" value="" style="edgeStyle=orthogonalEdgeStyle;rounded=0;orthogonalLoop=1;jettySize=auto;html=1;" parent="1" source="P9xloDru6htHzliWN8LX-72" target="P9xloDru6htHzliWN8LX-73" edge="1">
          <mxGeometry relative="1" as="geometry" />
        </mxCell>
        <mxCell id="P9xloDru6htHzliWN8LX-72" value="release right hand" style="whiteSpace=wrap;html=1;" parent="1" vertex="1">
          <mxGeometry x="425" y="970" width="120" height="60" as="geometry" />
        </mxCell>
        <mxCell id="P9xloDru6htHzliWN8LX-78" value="" style="edgeStyle=orthogonalEdgeStyle;rounded=0;orthogonalLoop=1;jettySize=auto;html=1;" parent="1" source="P9xloDru6htHzliWN8LX-73" target="P9xloDru6htHzliWN8LX-77" edge="1">
          <mxGeometry relative="1" as="geometry" />
        </mxCell>
        <mxCell id="P9xloDru6htHzliWN8LX-73" value="move right hand to the right untill not under jar" style="whiteSpace=wrap;html=1;" parent="1" vertex="1">
          <mxGeometry x="570" y="970" width="120" height="60" as="geometry" />
        </mxCell>
        <mxCell id="P9xloDru6htHzliWN8LX-82" value="" style="edgeStyle=orthogonalEdgeStyle;rounded=0;orthogonalLoop=1;jettySize=auto;html=1;" parent="1" source="P9xloDru6htHzliWN8LX-77" target="P9xloDru6htHzliWN8LX-81" edge="1">
          <mxGeometry relative="1" as="geometry" />
        </mxCell>
        <mxCell id="P9xloDru6htHzliWN8LX-77" value="move hand down untill bag is on counter" style="whiteSpace=wrap;html=1;" parent="1" vertex="1">
          <mxGeometry x="720" y="970" width="120" height="60" as="geometry" />
        </mxCell>
        <mxCell id="P9xloDru6htHzliWN8LX-97" style="edgeStyle=orthogonalEdgeStyle;rounded=0;orthogonalLoop=1;jettySize=auto;html=1;" parent="1" source="P9xloDru6htHzliWN8LX-81" target="P9xloDru6htHzliWN8LX-83" edge="1">
          <mxGeometry relative="1" as="geometry">
            <Array as="points">
              <mxPoint x="870" y="910" />
              <mxPoint x="870" y="1000" />
            </Array>
          </mxGeometry>
        </mxCell>
        <mxCell id="P9xloDru6htHzliWN8LX-81" value="release left hand and pull it away" style="whiteSpace=wrap;html=1;" parent="1" vertex="1">
          <mxGeometry x="720" y="880" width="120" height="60" as="geometry" />
        </mxCell>
        <mxCell id="P9xloDru6htHzliWN8LX-98" value="no" style="edgeStyle=orthogonalEdgeStyle;rounded=0;orthogonalLoop=1;jettySize=auto;html=1;" parent="1" source="P9xloDru6htHzliWN8LX-83" target="P9xloDru6htHzliWN8LX-84" edge="1">
          <mxGeometry relative="1" as="geometry" />
        </mxCell>
        <mxCell id="P9xloDru6htHzliWN8LX-83" value="is there a knife near me" style="rhombus;whiteSpace=wrap;html=1;" parent="1" vertex="1">
          <mxGeometry x="910" y="960" width="100" height="80" as="geometry" />
        </mxCell>
        <mxCell id="P9xloDru6htHzliWN8LX-105" style="edgeStyle=orthogonalEdgeStyle;rounded=0;orthogonalLoop=1;jettySize=auto;html=1;entryX=0;entryY=0.75;entryDx=0;entryDy=0;" parent="1" source="P9xloDru6htHzliWN8LX-84" target="P9xloDru6htHzliWN8LX-85" edge="1">
          <mxGeometry relative="1" as="geometry">
            <Array as="points">
              <mxPoint x="1170" y="870" />
            </Array>
          </mxGeometry>
        </mxCell>
        <mxCell id="P9xloDru6htHzliWN8LX-84" value="walk to where the knife is (since it&#39;s already prepped, that knowledge is know)" style="whiteSpace=wrap;html=1;" parent="1" vertex="1">
          <mxGeometry x="900" y="840" width="120" height="60" as="geometry" />
        </mxCell>
        <mxCell id="P9xloDru6htHzliWN8LX-106" style="edgeStyle=orthogonalEdgeStyle;rounded=0;orthogonalLoop=1;jettySize=auto;html=1;entryX=0;entryY=0.25;entryDx=0;entryDy=0;" parent="1" source="P9xloDru6htHzliWN8LX-85" target="P9xloDru6htHzliWN8LX-86" edge="1">
          <mxGeometry relative="1" as="geometry" />
        </mxCell>
        <mxCell id="P9xloDru6htHzliWN8LX-85" value="move left hand over knife" style="whiteSpace=wrap;html=1;" parent="1" vertex="1">
          <mxGeometry x="1170" y="800" width="120" height="60" as="geometry" />
        </mxCell>
        <UserObject label="G&lt;span style=&quot;font-size: 10px;&quot;&gt;1&lt;/span&gt;" id="P9xloDru6htHzliWN8LX-86">
          <mxCell style="shape=offPageConnector;whiteSpace=wrap;html=1;" parent="1" vertex="1">
            <mxGeometry x="1140" y="970" width="80" height="80" as="geometry" />
          </mxCell>
        </UserObject>
        <mxCell id="P9xloDru6htHzliWN8LX-118" style="edgeStyle=orthogonalEdgeStyle;rounded=0;orthogonalLoop=1;jettySize=auto;html=1;" parent="1" source="P9xloDru6htHzliWN8LX-88" target="P9xloDru6htHzliWN8LX-114" edge="1">
          <mxGeometry relative="1" as="geometry" />
        </mxCell>
        <mxCell id="P9xloDru6htHzliWN8LX-88" value="walk to plate" style="whiteSpace=wrap;html=1;" parent="1" vertex="1">
          <mxGeometry x="1410" y="980" width="120" height="60" as="geometry" />
        </mxCell>
        <mxCell id="P9xloDru6htHzliWN8LX-115" value="" style="edgeStyle=orthogonalEdgeStyle;rounded=0;orthogonalLoop=1;jettySize=auto;html=1;" parent="1" source="P9xloDru6htHzliWN8LX-89" target="P9xloDru6htHzliWN8LX-114" edge="1">
          <mxGeometry relative="1" as="geometry" />
        </mxCell>
        <mxCell id="P9xloDru6htHzliWN8LX-89" value="stand right in front of plate" style="whiteSpace=wrap;html=1;" parent="1" vertex="1">
          <mxGeometry x="1400" y="870" width="120" height="75" as="geometry" />
        </mxCell>
        <mxCell id="P9xloDru6htHzliWN8LX-108" value="yes" style="edgeStyle=orthogonalEdgeStyle;rounded=0;orthogonalLoop=1;jettySize=auto;html=1;entryX=0.133;entryY=0.967;entryDx=0;entryDy=0;entryPerimeter=0;" parent="1" source="P9xloDru6htHzliWN8LX-83" target="P9xloDru6htHzliWN8LX-85" edge="1">
          <mxGeometry relative="1" as="geometry">
            <Array as="points">
              <mxPoint x="1080" y="1000" />
              <mxPoint x="1080" y="880" />
              <mxPoint x="1186" y="880" />
            </Array>
          </mxGeometry>
        </mxCell>
        <mxCell id="P9xloDru6htHzliWN8LX-110" value="" style="edgeStyle=orthogonalEdgeStyle;rounded=0;orthogonalLoop=1;jettySize=auto;html=1;" parent="1" source="P9xloDru6htHzliWN8LX-86" target="P9xloDru6htHzliWN8LX-87" edge="1">
          <mxGeometry relative="1" as="geometry">
            <mxPoint x="1220" y="1010" as="sourcePoint" />
            <mxPoint x="1330" y="1010" as="targetPoint" />
          </mxGeometry>
        </mxCell>
        <mxCell id="P9xloDru6htHzliWN8LX-112" value="no" style="edgeStyle=orthogonalEdgeStyle;rounded=0;orthogonalLoop=1;jettySize=auto;html=1;" parent="1" source="P9xloDru6htHzliWN8LX-87" target="P9xloDru6htHzliWN8LX-88" edge="1">
          <mxGeometry relative="1" as="geometry" />
        </mxCell>
        <mxCell id="P9xloDru6htHzliWN8LX-113" value="yes" style="edgeStyle=orthogonalEdgeStyle;rounded=0;orthogonalLoop=1;jettySize=auto;html=1;entryX=0;entryY=0.5;entryDx=0;entryDy=0;" parent="1" source="P9xloDru6htHzliWN8LX-87" target="P9xloDru6htHzliWN8LX-89" edge="1">
          <mxGeometry relative="1" as="geometry">
            <Array as="points">
              <mxPoint x="1365" y="980" />
              <mxPoint x="1365" y="908" />
            </Array>
          </mxGeometry>
        </mxCell>
        <mxCell id="P9xloDru6htHzliWN8LX-87" value="currently near plate?" style="rhombus;whiteSpace=wrap;html=1;" parent="1" vertex="1">
          <mxGeometry x="1250" y="970" width="80" height="80" as="geometry" />
        </mxCell>
        <mxCell id="P9xloDru6htHzliWN8LX-120" value="" style="edgeStyle=orthogonalEdgeStyle;rounded=0;orthogonalLoop=1;jettySize=auto;html=1;" parent="1" source="P9xloDru6htHzliWN8LX-114" target="P9xloDru6htHzliWN8LX-119" edge="1">
          <mxGeometry relative="1" as="geometry">
            <Array as="points">
              <mxPoint x="1660" y="930" />
              <mxPoint x="1660" y="930" />
            </Array>
          </mxGeometry>
        </mxCell>
        <mxCell id="P9xloDru6htHzliWN8LX-114" value="rotate knife 90 degrees such that the blade points away from you, parallel with ground" style="whiteSpace=wrap;html=1;" parent="1" vertex="1">
          <mxGeometry x="1570" y="960" width="120" height="80" as="geometry" />
        </mxCell>
        <mxCell id="P9xloDru6htHzliWN8LX-124" value="" style="edgeStyle=orthogonalEdgeStyle;rounded=0;orthogonalLoop=1;jettySize=auto;html=1;" parent="1" source="P9xloDru6htHzliWN8LX-119" target="P9xloDru6htHzliWN8LX-123" edge="1">
          <mxGeometry relative="1" as="geometry" />
        </mxCell>
        <mxCell id="P9xloDru6htHzliWN8LX-119" value="move knife to where it&#39;s over the center of plate" style="whiteSpace=wrap;html=1;" parent="1" vertex="1">
          <mxGeometry x="1560" y="780" width="120" height="60" as="geometry" />
        </mxCell>
        <mxCell id="P9xloDru6htHzliWN8LX-126" value="no" style="edgeStyle=orthogonalEdgeStyle;rounded=0;orthogonalLoop=1;jettySize=auto;html=1;" parent="1" source="P9xloDru6htHzliWN8LX-123" target="P9xloDru6htHzliWN8LX-125" edge="1">
          <mxGeometry relative="1" as="geometry" />
        </mxCell>
        <mxCell id="P9xloDru6htHzliWN8LX-130" value="yes" style="edgeStyle=orthogonalEdgeStyle;rounded=0;orthogonalLoop=1;jettySize=auto;html=1;" parent="1" source="P9xloDru6htHzliWN8LX-123" target="P9xloDru6htHzliWN8LX-129" edge="1">
          <mxGeometry relative="1" as="geometry" />
        </mxCell>
        <mxCell id="P9xloDru6htHzliWN8LX-123" value="is knife in left hand?" style="rhombus;whiteSpace=wrap;html=1;" parent="1" vertex="1">
          <mxGeometry x="1390" y="765" width="90" height="90" as="geometry" />
        </mxCell>
        <mxCell id="P9xloDru6htHzliWN8LX-132" value="" style="edgeStyle=orthogonalEdgeStyle;rounded=0;orthogonalLoop=1;jettySize=auto;html=1;" parent="1" source="P9xloDru6htHzliWN8LX-125" target="P9xloDru6htHzliWN8LX-131" edge="1">
          <mxGeometry relative="1" as="geometry" />
        </mxCell>
        <mxCell id="P9xloDru6htHzliWN8LX-125" value="move knife 1 cm&amp;nbsp; to the right" style="whiteSpace=wrap;html=1;" parent="1" vertex="1">
          <mxGeometry x="1375" y="640" width="120" height="60" as="geometry" />
        </mxCell>
        <mxCell id="P9xloDru6htHzliWN8LX-133" style="edgeStyle=orthogonalEdgeStyle;rounded=0;orthogonalLoop=1;jettySize=auto;html=1;" parent="1" source="P9xloDru6htHzliWN8LX-129" target="P9xloDru6htHzliWN8LX-131" edge="1">
          <mxGeometry relative="1" as="geometry" />
        </mxCell>
        <mxCell id="P9xloDru6htHzliWN8LX-129" value="move knife 1 cm&amp;nbsp; to the left" style="whiteSpace=wrap;html=1;" parent="1" vertex="1">
          <mxGeometry x="1255" y="640" width="120" height="60" as="geometry" />
        </mxCell>
        <mxCell id="P9xloDru6htHzliWN8LX-134" value="yes" style="edgeStyle=orthogonalEdgeStyle;rounded=0;orthogonalLoop=1;jettySize=auto;html=1;entryX=1;entryY=0;entryDx=0;entryDy=0;" parent="1" source="P9xloDru6htHzliWN8LX-131" target="P9xloDru6htHzliWN8LX-123" edge="1">
          <mxGeometry relative="1" as="geometry">
            <Array as="points">
              <mxPoint x="1510" y="525" />
              <mxPoint x="1510" y="788" />
            </Array>
          </mxGeometry>
        </mxCell>
        <mxCell id="P9xloDru6htHzliWN8LX-138" value="no" style="edgeStyle=orthogonalEdgeStyle;rounded=0;orthogonalLoop=1;jettySize=auto;html=1;entryX=1;entryY=0.5;entryDx=0;entryDy=0;" parent="1" source="P9xloDru6htHzliWN8LX-131" target="P9xloDru6htHzliWN8LX-135" edge="1">
          <mxGeometry relative="1" as="geometry">
            <Array as="points">
              <mxPoint x="1350" y="600" />
              <mxPoint x="1250" y="600" />
              <mxPoint x="1250" y="705" />
            </Array>
          </mxGeometry>
        </mxCell>
        <mxCell id="P9xloDru6htHzliWN8LX-131" value="does the knife completly overlap the plate, with no part over the counter?" style="rhombus;whiteSpace=wrap;html=1;" parent="1" vertex="1">
          <mxGeometry x="1330" y="470" width="115" height="110" as="geometry" />
        </mxCell>
        <mxCell id="P9xloDru6htHzliWN8LX-139" value="no" style="edgeStyle=orthogonalEdgeStyle;rounded=0;orthogonalLoop=1;jettySize=auto;html=1;entryX=0.5;entryY=1;entryDx=0;entryDy=0;" parent="1" source="P9xloDru6htHzliWN8LX-135" target="P9xloDru6htHzliWN8LX-136" edge="1">
          <mxGeometry relative="1" as="geometry">
            <Array as="points">
              <mxPoint x="1190" y="580" />
            </Array>
          </mxGeometry>
        </mxCell>
        <mxCell id="P9xloDru6htHzliWN8LX-141" value="yes" style="edgeStyle=orthogonalEdgeStyle;rounded=0;orthogonalLoop=1;jettySize=auto;html=1;" parent="1" source="P9xloDru6htHzliWN8LX-135" target="P9xloDru6htHzliWN8LX-137" edge="1">
          <mxGeometry relative="1" as="geometry" />
        </mxCell>
        <mxCell id="P9xloDru6htHzliWN8LX-135" value="is knife in left hand?" style="rhombus;whiteSpace=wrap;html=1;" parent="1" vertex="1">
          <mxGeometry x="1120" y="700" width="90" height="90" as="geometry" />
        </mxCell>
        <mxCell id="P9xloDru6htHzliWN8LX-145" style="edgeStyle=orthogonalEdgeStyle;rounded=0;orthogonalLoop=1;jettySize=auto;html=1;entryX=1;entryY=0.5;entryDx=0;entryDy=0;" parent="1" source="P9xloDru6htHzliWN8LX-136" target="P9xloDru6htHzliWN8LX-142" edge="1">
          <mxGeometry relative="1" as="geometry">
            <Array as="points">
              <mxPoint x="1260" y="500" />
              <mxPoint x="1030" y="500" />
              <mxPoint x="1030" y="790" />
            </Array>
          </mxGeometry>
        </mxCell>
        <mxCell id="P9xloDru6htHzliWN8LX-136" value="move knife 1 cm&amp;nbsp; to the left" style="whiteSpace=wrap;html=1;" parent="1" vertex="1">
          <mxGeometry x="1200" y="520" width="120" height="60" as="geometry" />
        </mxCell>
        <mxCell id="P9xloDru6htHzliWN8LX-143" value="" style="edgeStyle=orthogonalEdgeStyle;rounded=0;orthogonalLoop=1;jettySize=auto;html=1;" parent="1" source="P9xloDru6htHzliWN8LX-137" target="P9xloDru6htHzliWN8LX-142" edge="1">
          <mxGeometry relative="1" as="geometry">
            <Array as="points">
              <mxPoint x="1030" y="550" />
              <mxPoint x="1030" y="790" />
            </Array>
          </mxGeometry>
        </mxCell>
        <mxCell id="P9xloDru6htHzliWN8LX-137" value="move knife 1 cm&amp;nbsp; to the right" style="whiteSpace=wrap;html=1;" parent="1" vertex="1">
          <mxGeometry x="1060" y="520" width="120" height="60" as="geometry" />
        </mxCell>
        <mxCell id="P9xloDru6htHzliWN8LX-147" value="" style="edgeStyle=orthogonalEdgeStyle;rounded=0;orthogonalLoop=1;jettySize=auto;html=1;" parent="1" source="P9xloDru6htHzliWN8LX-142" target="P9xloDru6htHzliWN8LX-146" edge="1">
          <mxGeometry relative="1" as="geometry" />
        </mxCell>
        <mxCell id="P9xloDru6htHzliWN8LX-142" value="move hand down untill knife is touching plate" style="whiteSpace=wrap;html=1;" parent="1" vertex="1">
          <mxGeometry x="1010" y="765" width="120" height="60" as="geometry" />
        </mxCell>
        <mxCell id="P9xloDru6htHzliWN8LX-149" value="" style="edgeStyle=orthogonalEdgeStyle;rounded=0;orthogonalLoop=1;jettySize=auto;html=1;" parent="1" source="P9xloDru6htHzliWN8LX-146" target="P9xloDru6htHzliWN8LX-148" edge="1">
          <mxGeometry relative="1" as="geometry" />
        </mxCell>
        <mxCell id="P9xloDru6htHzliWN8LX-146" value="release knife, pull hand away (ensure knife stays on plate)" style="whiteSpace=wrap;html=1;" parent="1" vertex="1">
          <mxGeometry x="850" y="760" width="120" height="60" as="geometry" />
        </mxCell>
        <mxCell id="P9xloDru6htHzliWN8LX-151" value="" style="edgeStyle=orthogonalEdgeStyle;rounded=0;orthogonalLoop=1;jettySize=auto;html=1;" parent="1" source="P9xloDru6htHzliWN8LX-148" target="P9xloDru6htHzliWN8LX-150" edge="1">
          <mxGeometry relative="1" as="geometry" />
        </mxCell>
        <mxCell id="P9xloDru6htHzliWN8LX-148" value="move hand over jelly" style="whiteSpace=wrap;html=1;" parent="1" vertex="1">
          <mxGeometry x="850" y="620" width="120" height="60" as="geometry" />
        </mxCell>
        <mxCell id="P9xloDru6htHzliWN8LX-153" value="yes" style="edgeStyle=orthogonalEdgeStyle;rounded=0;orthogonalLoop=1;jettySize=auto;html=1;" parent="1" source="P9xloDru6htHzliWN8LX-150" target="P9xloDru6htHzliWN8LX-152" edge="1">
          <mxGeometry relative="1" as="geometry" />
        </mxCell>
        <mxCell id="P9xloDru6htHzliWN8LX-150" value="is screw cap on?" style="rhombus;whiteSpace=wrap;html=1;" parent="1" vertex="1">
          <mxGeometry x="870" y="470" width="80" height="80" as="geometry" />
        </mxCell>
        <mxCell id="P9xloDru6htHzliWN8LX-155" value="" style="edgeStyle=orthogonalEdgeStyle;rounded=0;orthogonalLoop=1;jettySize=auto;html=1;" parent="1" source="P9xloDru6htHzliWN8LX-152" target="P9xloDru6htHzliWN8LX-154" edge="1">
          <mxGeometry relative="1" as="geometry" />
        </mxCell>
        <mxCell id="P9xloDru6htHzliWN8LX-152" value="put fingers around cap" style="whiteSpace=wrap;html=1;" parent="1" vertex="1">
          <mxGeometry x="850" y="345" width="120" height="60" as="geometry" />
        </mxCell>
        <mxCell id="P9xloDru6htHzliWN8LX-159" value="" style="edgeStyle=orthogonalEdgeStyle;rounded=0;orthogonalLoop=1;jettySize=auto;html=1;" parent="1" source="P9xloDru6htHzliWN8LX-154" target="P9xloDru6htHzliWN8LX-158" edge="1">
          <mxGeometry relative="1" as="geometry" />
        </mxCell>
        <mxCell id="P9xloDru6htHzliWN8LX-154" value="rotate cap to the left" style="whiteSpace=wrap;html=1;" parent="1" vertex="1">
          <mxGeometry x="850" y="230" width="120" height="60" as="geometry" />
        </mxCell>
        <mxCell id="P9xloDru6htHzliWN8LX-163" value="" style="edgeStyle=orthogonalEdgeStyle;rounded=0;orthogonalLoop=1;jettySize=auto;html=1;" parent="1" source="P9xloDru6htHzliWN8LX-158" target="P9xloDru6htHzliWN8LX-162" edge="1">
          <mxGeometry relative="1" as="geometry" />
        </mxCell>
        <mxCell id="P9xloDru6htHzliWN8LX-158" value="pull on lid" style="whiteSpace=wrap;html=1;" parent="1" vertex="1">
          <mxGeometry x="850" y="120" width="120" height="60" as="geometry" />
        </mxCell>
        <mxCell id="P9xloDru6htHzliWN8LX-165" value="yes" style="edgeStyle=orthogonalEdgeStyle;rounded=0;orthogonalLoop=1;jettySize=auto;html=1;" parent="1" source="P9xloDru6htHzliWN8LX-162" target="P9xloDru6htHzliWN8LX-164" edge="1">
          <mxGeometry relative="1" as="geometry">
            <Array as="points">
              <mxPoint x="940" y="110" />
            </Array>
          </mxGeometry>
        </mxCell>
        <mxCell id="P9xloDru6htHzliWN8LX-169" value="no" style="edgeStyle=orthogonalEdgeStyle;rounded=0;orthogonalLoop=1;jettySize=auto;html=1;" parent="1" source="P9xloDru6htHzliWN8LX-162" target="P9xloDru6htHzliWN8LX-168" edge="1">
          <mxGeometry relative="1" as="geometry" />
        </mxCell>
        <mxCell id="P9xloDru6htHzliWN8LX-162" value="still on jar?" style="rhombus;whiteSpace=wrap;html=1;" parent="1" vertex="1">
          <mxGeometry x="870" width="80" height="80" as="geometry" />
        </mxCell>
        <mxCell id="P9xloDru6htHzliWN8LX-166" style="edgeStyle=orthogonalEdgeStyle;rounded=0;orthogonalLoop=1;jettySize=auto;html=1;entryX=1;entryY=0.75;entryDx=0;entryDy=0;" parent="1" source="P9xloDru6htHzliWN8LX-164" target="P9xloDru6htHzliWN8LX-152" edge="1">
          <mxGeometry relative="1" as="geometry">
            <Array as="points">
              <mxPoint x="1020" y="208" />
              <mxPoint x="990" y="208" />
              <mxPoint x="990" y="390" />
            </Array>
          </mxGeometry>
        </mxCell>
        <mxCell id="P9xloDru6htHzliWN8LX-164" value="move jar down so it&#39;s back on table" style="whiteSpace=wrap;html=1;" parent="1" vertex="1">
          <mxGeometry x="990" y="80" width="120" height="60" as="geometry" />
        </mxCell>
        <mxCell id="P9xloDru6htHzliWN8LX-171" value="" style="edgeStyle=orthogonalEdgeStyle;rounded=0;orthogonalLoop=1;jettySize=auto;html=1;" parent="1" source="P9xloDru6htHzliWN8LX-168" target="P9xloDru6htHzliWN8LX-170" edge="1">
          <mxGeometry relative="1" as="geometry" />
        </mxCell>
        <mxCell id="P9xloDru6htHzliWN8LX-168" value="move hand up" style="whiteSpace=wrap;html=1;" parent="1" vertex="1">
          <mxGeometry x="1180" y="10" width="120" height="60" as="geometry" />
        </mxCell>
        <mxCell id="P9xloDru6htHzliWN8LX-173" value="" style="edgeStyle=orthogonalEdgeStyle;rounded=0;orthogonalLoop=1;jettySize=auto;html=1;" parent="1" source="P9xloDru6htHzliWN8LX-170" target="P9xloDru6htHzliWN8LX-172" edge="1">
          <mxGeometry relative="1" as="geometry" />
        </mxCell>
        <mxCell id="P9xloDru6htHzliWN8LX-170" value="move to the left 5 cm" style="whiteSpace=wrap;html=1;" parent="1" vertex="1">
          <mxGeometry x="1080" y="150" width="120" height="60" as="geometry" />
        </mxCell>
        <mxCell id="P9xloDru6htHzliWN8LX-175" value="" style="edgeStyle=orthogonalEdgeStyle;rounded=0;orthogonalLoop=1;jettySize=auto;html=1;" parent="1" source="P9xloDru6htHzliWN8LX-172" target="P9xloDru6htHzliWN8LX-174" edge="1">
          <mxGeometry relative="1" as="geometry" />
        </mxCell>
        <mxCell id="P9xloDru6htHzliWN8LX-172" value="rotate hand 180 degrees" style="whiteSpace=wrap;html=1;" parent="1" vertex="1">
          <mxGeometry x="1020" y="280" width="120" height="60" as="geometry" />
        </mxCell>
        <mxCell id="P9xloDru6htHzliWN8LX-177" value="" style="edgeStyle=orthogonalEdgeStyle;rounded=0;orthogonalLoop=1;jettySize=auto;html=1;" parent="1" source="P9xloDru6htHzliWN8LX-174" target="P9xloDru6htHzliWN8LX-176" edge="1">
          <mxGeometry relative="1" as="geometry" />
        </mxCell>
        <mxCell id="P9xloDru6htHzliWN8LX-174" value="put lid on counter" style="whiteSpace=wrap;html=1;" parent="1" vertex="1">
          <mxGeometry x="1000" y="400" width="120" height="60" as="geometry" />
        </mxCell>
        <mxCell id="P9xloDru6htHzliWN8LX-183" value="" style="edgeStyle=orthogonalEdgeStyle;rounded=0;orthogonalLoop=1;jettySize=auto;html=1;" parent="1" source="P9xloDru6htHzliWN8LX-176" target="P9xloDru6htHzliWN8LX-182" edge="1">
          <mxGeometry relative="1" as="geometry" />
        </mxCell>
        <mxCell id="P9xloDru6htHzliWN8LX-176" value="release lid" style="whiteSpace=wrap;html=1;" parent="1" vertex="1">
          <mxGeometry x="1200" y="400" width="120" height="60" as="geometry" />
        </mxCell>
        <mxCell id="P9xloDru6htHzliWN8LX-185" value="" style="edgeStyle=orthogonalEdgeStyle;rounded=0;orthogonalLoop=1;jettySize=auto;html=1;" parent="1" source="P9xloDru6htHzliWN8LX-182" target="P9xloDru6htHzliWN8LX-184" edge="1">
          <mxGeometry relative="1" as="geometry" />
        </mxCell>
        <mxCell id="P9xloDru6htHzliWN8LX-182" value="move left hand over knife" style="whiteSpace=wrap;html=1;" parent="1" vertex="1">
          <mxGeometry x="1200" y="260" width="120" height="60" as="geometry" />
        </mxCell>
        <mxCell id="P9xloDru6htHzliWN8LX-187" value="" style="edgeStyle=orthogonalEdgeStyle;rounded=0;orthogonalLoop=1;jettySize=auto;html=1;" parent="1" source="P9xloDru6htHzliWN8LX-184" target="P9xloDru6htHzliWN8LX-186" edge="1">
          <mxGeometry relative="1" as="geometry">
            <Array as="points">
              <mxPoint x="1270" y="100" />
              <mxPoint x="1370" y="100" />
            </Array>
          </mxGeometry>
        </mxCell>
        <UserObject label="G&lt;span style=&quot;font-size: 10px;&quot;&gt;1&lt;/span&gt;" id="P9xloDru6htHzliWN8LX-184">
          <mxCell style="shape=offPageConnector;whiteSpace=wrap;html=1;" parent="1" vertex="1">
            <mxGeometry x="1220" y="150" width="80" height="80" as="geometry" />
          </mxCell>
        </UserObject>
        <mxCell id="P9xloDru6htHzliWN8LX-190" value="" style="edgeStyle=orthogonalEdgeStyle;rounded=0;orthogonalLoop=1;jettySize=auto;html=1;" parent="1" source="P9xloDru6htHzliWN8LX-186" target="P9xloDru6htHzliWN8LX-189" edge="1">
          <mxGeometry relative="1" as="geometry">
            <Array as="points">
              <mxPoint x="1400" y="90" />
              <mxPoint x="1400" y="90" />
            </Array>
          </mxGeometry>
        </mxCell>
        <mxCell id="P9xloDru6htHzliWN8LX-186" value="lift knife so that the tip of the blade is 2 cm higher than the lip of the jelly container" style="whiteSpace=wrap;html=1;" parent="1" vertex="1">
          <mxGeometry x="1310" y="15" width="120" height="60" as="geometry" />
        </mxCell>
        <mxCell id="P9xloDru6htHzliWN8LX-192" value="" style="edgeStyle=orthogonalEdgeStyle;rounded=0;orthogonalLoop=1;jettySize=auto;html=1;" parent="1" source="P9xloDru6htHzliWN8LX-189" target="P9xloDru6htHzliWN8LX-191" edge="1">
          <mxGeometry relative="1" as="geometry" />
        </mxCell>
        <mxCell id="P9xloDru6htHzliWN8LX-189" value="move knife so it is centered over the jelly&amp;nbsp;" style="whiteSpace=wrap;html=1;" parent="1" vertex="1">
          <mxGeometry x="1340" y="150" width="120" height="60" as="geometry" />
        </mxCell>
        <mxCell id="P9xloDru6htHzliWN8LX-195" value="" style="edgeStyle=orthogonalEdgeStyle;rounded=0;orthogonalLoop=1;jettySize=auto;html=1;" parent="1" source="P9xloDru6htHzliWN8LX-191" target="P9xloDru6htHzliWN8LX-194" edge="1">
          <mxGeometry relative="1" as="geometry" />
        </mxCell>
        <mxCell id="P9xloDru6htHzliWN8LX-191" value="low knife, blade first, into jelly. Push untill it&#39;s all the way jar" style="whiteSpace=wrap;html=1;" parent="1" vertex="1">
          <mxGeometry x="1327.5" y="290" width="120" height="60" as="geometry" />
        </mxCell>
        <mxCell id="P9xloDru6htHzliWN8LX-197" value="" style="edgeStyle=orthogonalEdgeStyle;rounded=0;orthogonalLoop=1;jettySize=auto;html=1;" parent="1" source="P9xloDru6htHzliWN8LX-194" target="P9xloDru6htHzliWN8LX-196" edge="1">
          <mxGeometry relative="1" as="geometry">
            <Array as="points">
              <mxPoint x="1470" y="430" />
              <mxPoint x="1470" y="40" />
            </Array>
          </mxGeometry>
        </mxCell>
        <mxCell id="P9xloDru6htHzliWN8LX-194" value="release knife from grip" style="whiteSpace=wrap;html=1;" parent="1" vertex="1">
          <mxGeometry x="1340" y="400" width="120" height="60" as="geometry" />
        </mxCell>
        <mxCell id="P9xloDru6htHzliWN8LX-199" value="" style="edgeStyle=orthogonalEdgeStyle;rounded=0;orthogonalLoop=1;jettySize=auto;html=1;" parent="1" source="P9xloDru6htHzliWN8LX-196" target="P9xloDru6htHzliWN8LX-198" edge="1">
          <mxGeometry relative="1" as="geometry" />
        </mxCell>
        <mxCell id="P9xloDru6htHzliWN8LX-196" value="move hand over bag of bread" style="whiteSpace=wrap;html=1;" parent="1" vertex="1">
          <mxGeometry x="1510" y="10" width="120" height="60" as="geometry" />
        </mxCell>
        <mxCell id="P9xloDru6htHzliWN8LX-201" value="" style="edgeStyle=orthogonalEdgeStyle;rounded=0;orthogonalLoop=1;jettySize=auto;html=1;" parent="1" source="P9xloDru6htHzliWN8LX-198" target="P9xloDru6htHzliWN8LX-200" edge="1">
          <mxGeometry relative="1" as="geometry" />
        </mxCell>
        <mxCell id="P9xloDru6htHzliWN8LX-198" value="move hand down to the front of bag" style="whiteSpace=wrap;html=1;" parent="1" vertex="1">
          <mxGeometry x="1510" y="150" width="120" height="60" as="geometry" />
        </mxCell>
        <mxCell id="P9xloDru6htHzliWN8LX-203" value="no" style="edgeStyle=orthogonalEdgeStyle;rounded=0;orthogonalLoop=1;jettySize=auto;html=1;" parent="1" source="P9xloDru6htHzliWN8LX-200" target="P9xloDru6htHzliWN8LX-202" edge="1">
          <mxGeometry relative="1" as="geometry" />
        </mxCell>
        <mxCell id="P9xloDru6htHzliWN8LX-215" value="yes" style="edgeStyle=orthogonalEdgeStyle;rounded=0;orthogonalLoop=1;jettySize=auto;html=1;entryX=0.5;entryY=1;entryDx=0;entryDy=0;" parent="1" source="P9xloDru6htHzliWN8LX-200" target="P9xloDru6htHzliWN8LX-212" edge="1">
          <mxGeometry relative="1" as="geometry">
            <Array as="points">
              <mxPoint x="1640" y="330" />
            </Array>
          </mxGeometry>
        </mxCell>
        <mxCell id="P9xloDru6htHzliWN8LX-200" value="is open?" style="rhombus;whiteSpace=wrap;html=1;" parent="1" vertex="1">
          <mxGeometry x="1480" y="260" width="80" height="80" as="geometry" />
        </mxCell>
        <mxCell id="P9xloDru6htHzliWN8LX-205" value="" style="edgeStyle=orthogonalEdgeStyle;rounded=0;orthogonalLoop=1;jettySize=auto;html=1;" parent="1" source="P9xloDru6htHzliWN8LX-202" target="P9xloDru6htHzliWN8LX-204" edge="1">
          <mxGeometry relative="1" as="geometry">
            <Array as="points">
              <mxPoint x="1570" y="510" />
              <mxPoint x="1570" y="510" />
            </Array>
          </mxGeometry>
        </mxCell>
        <mxCell id="P9xloDru6htHzliWN8LX-202" value="grab bag with 1 hand, and twist-tie with other" style="whiteSpace=wrap;html=1;" parent="1" vertex="1">
          <mxGeometry x="1510" y="400" width="120" height="60" as="geometry" />
        </mxCell>
        <mxCell id="P9xloDru6htHzliWN8LX-207" value="" style="edgeStyle=orthogonalEdgeStyle;rounded=0;orthogonalLoop=1;jettySize=auto;html=1;" parent="1" source="P9xloDru6htHzliWN8LX-204" target="P9xloDru6htHzliWN8LX-206" edge="1">
          <mxGeometry relative="1" as="geometry" />
        </mxCell>
        <mxCell id="P9xloDru6htHzliWN8LX-204" value="untwist twist-tie by twisting it in the opposite direction of it&#39;s current twist" style="whiteSpace=wrap;html=1;" parent="1" vertex="1">
          <mxGeometry x="1520" y="560" width="120" height="60" as="geometry" />
        </mxCell>
        <mxCell id="P9xloDru6htHzliWN8LX-209" value="" style="edgeStyle=orthogonalEdgeStyle;rounded=0;orthogonalLoop=1;jettySize=auto;html=1;" parent="1" source="P9xloDru6htHzliWN8LX-206" target="P9xloDru6htHzliWN8LX-208" edge="1">
          <mxGeometry relative="1" as="geometry">
            <Array as="points">
              <mxPoint x="1660" y="710" />
            </Array>
          </mxGeometry>
        </mxCell>
        <mxCell id="P9xloDru6htHzliWN8LX-206" value="move twist tie to side, release it" style="whiteSpace=wrap;html=1;" parent="1" vertex="1">
          <mxGeometry x="1520" y="680" width="120" height="60" as="geometry" />
        </mxCell>
        <mxCell id="P9xloDru6htHzliWN8LX-213" value="" style="edgeStyle=orthogonalEdgeStyle;rounded=0;orthogonalLoop=1;jettySize=auto;html=1;" parent="1" source="P9xloDru6htHzliWN8LX-208" target="P9xloDru6htHzliWN8LX-212" edge="1">
          <mxGeometry relative="1" as="geometry" />
        </mxCell>
        <mxCell id="P9xloDru6htHzliWN8LX-208" value="release bag edge" style="whiteSpace=wrap;html=1;" parent="1" vertex="1">
          <mxGeometry x="1580" y="480" width="120" height="60" as="geometry" />
        </mxCell>
        <mxCell id="P9xloDru6htHzliWN8LX-218" value="" style="edgeStyle=orthogonalEdgeStyle;rounded=0;orthogonalLoop=1;jettySize=auto;html=1;" parent="1" source="P9xloDru6htHzliWN8LX-212" target="P9xloDru6htHzliWN8LX-217" edge="1">
          <mxGeometry relative="1" as="geometry" />
        </mxCell>
        <mxCell id="P9xloDru6htHzliWN8LX-212" value="move left hand to bottom of the opening" style="whiteSpace=wrap;html=1;" parent="1" vertex="1">
          <mxGeometry x="1580" y="230" width="120" height="60" as="geometry" />
        </mxCell>
        <mxCell id="P9xloDru6htHzliWN8LX-220" value="" style="edgeStyle=orthogonalEdgeStyle;rounded=0;orthogonalLoop=1;jettySize=auto;html=1;" parent="1" source="P9xloDru6htHzliWN8LX-217" target="P9xloDru6htHzliWN8LX-219" edge="1">
          <mxGeometry relative="1" as="geometry">
            <Array as="points">
              <mxPoint x="1660" y="40" />
            </Array>
          </mxGeometry>
        </mxCell>
        <mxCell id="P9xloDru6htHzliWN8LX-217" value="move right hand to top of opening" style="whiteSpace=wrap;html=1;" parent="1" vertex="1">
          <mxGeometry x="1590" y="80" width="120" height="60" as="geometry" />
        </mxCell>
        <mxCell id="P9xloDru6htHzliWN8LX-222" value="" style="edgeStyle=orthogonalEdgeStyle;rounded=0;orthogonalLoop=1;jettySize=auto;html=1;" parent="1" source="P9xloDru6htHzliWN8LX-219" target="P9xloDru6htHzliWN8LX-221" edge="1">
          <mxGeometry relative="1" as="geometry" />
        </mxCell>
        <mxCell id="P9xloDru6htHzliWN8LX-219" value="ensuring you only grab 1 layer, pinch the top and bottom half with the relevant hand" style="whiteSpace=wrap;html=1;" parent="1" vertex="1">
          <mxGeometry x="1720" y="10" width="120" height="60" as="geometry" />
        </mxCell>
        <mxCell id="P9xloDru6htHzliWN8LX-224" value="" style="edgeStyle=orthogonalEdgeStyle;rounded=0;orthogonalLoop=1;jettySize=auto;html=1;" parent="1" source="P9xloDru6htHzliWN8LX-221" target="P9xloDru6htHzliWN8LX-223" edge="1">
          <mxGeometry relative="1" as="geometry" />
        </mxCell>
        <mxCell id="P9xloDru6htHzliWN8LX-221" value="pull edges open" style="whiteSpace=wrap;html=1;" parent="1" vertex="1">
          <mxGeometry x="1720" y="150" width="120" height="60" as="geometry" />
        </mxCell>
        <mxCell id="P9xloDru6htHzliWN8LX-226" value="" style="edgeStyle=orthogonalEdgeStyle;rounded=0;orthogonalLoop=1;jettySize=auto;html=1;" parent="1" source="P9xloDru6htHzliWN8LX-223" target="P9xloDru6htHzliWN8LX-225" edge="1">
          <mxGeometry relative="1" as="geometry" />
        </mxCell>
        <mxCell id="P9xloDru6htHzliWN8LX-223" value="release bottom hand" style="whiteSpace=wrap;html=1;" parent="1" vertex="1">
          <mxGeometry x="1720" y="290" width="120" height="60" as="geometry" />
        </mxCell>
        <mxCell id="P9xloDru6htHzliWN8LX-228" value="" style="edgeStyle=orthogonalEdgeStyle;rounded=0;orthogonalLoop=1;jettySize=auto;html=1;" parent="1" source="P9xloDru6htHzliWN8LX-225" target="P9xloDru6htHzliWN8LX-227" edge="1">
          <mxGeometry relative="1" as="geometry" />
        </mxCell>
        <mxCell id="P9xloDru6htHzliWN8LX-225" value="manipulating bag as necessary, reach in and pull out 2 slices" style="whiteSpace=wrap;html=1;" parent="1" vertex="1">
          <mxGeometry x="1720" y="430" width="120" height="60" as="geometry" />
        </mxCell>
        <mxCell id="P9xloDru6htHzliWN8LX-230" value="" style="edgeStyle=orthogonalEdgeStyle;rounded=0;orthogonalLoop=1;jettySize=auto;html=1;" parent="1" source="P9xloDru6htHzliWN8LX-227" target="P9xloDru6htHzliWN8LX-229" edge="1">
          <mxGeometry relative="1" as="geometry" />
        </mxCell>
        <mxCell id="P9xloDru6htHzliWN8LX-227" value="slide them out partially, then release your top hand" style="whiteSpace=wrap;html=1;" parent="1" vertex="1">
          <mxGeometry x="1720" y="570" width="120" height="60" as="geometry" />
        </mxCell>
        <mxCell id="P9xloDru6htHzliWN8LX-232" value="" style="edgeStyle=orthogonalEdgeStyle;rounded=0;orthogonalLoop=1;jettySize=auto;html=1;" parent="1" source="P9xloDru6htHzliWN8LX-229" target="P9xloDru6htHzliWN8LX-231" edge="1">
          <mxGeometry relative="1" as="geometry" />
        </mxCell>
        <mxCell id="P9xloDru6htHzliWN8LX-229" value="grab the bread by lightly pinching it with both hands" style="whiteSpace=wrap;html=1;" parent="1" vertex="1">
          <mxGeometry x="1720" y="710" width="120" height="60" as="geometry" />
        </mxCell>
        <mxCell id="P9xloDru6htHzliWN8LX-234" value="" style="edgeStyle=orthogonalEdgeStyle;rounded=0;orthogonalLoop=1;jettySize=auto;html=1;" parent="1" source="P9xloDru6htHzliWN8LX-231" target="P9xloDru6htHzliWN8LX-233" edge="1">
          <mxGeometry relative="1" as="geometry" />
        </mxCell>
        <mxCell id="P9xloDru6htHzliWN8LX-231" value="center slices over plate" style="whiteSpace=wrap;html=1;" parent="1" vertex="1">
          <mxGeometry x="1720" y="850" width="120" height="60" as="geometry" />
        </mxCell>
        <mxCell id="P9xloDru6htHzliWN8LX-236" value="" style="edgeStyle=orthogonalEdgeStyle;rounded=0;orthogonalLoop=1;jettySize=auto;html=1;" parent="1" source="P9xloDru6htHzliWN8LX-233" target="P9xloDru6htHzliWN8LX-235" edge="1">
          <mxGeometry relative="1" as="geometry" />
        </mxCell>
        <mxCell id="P9xloDru6htHzliWN8LX-233" value="move untill 3 cm above center" style="whiteSpace=wrap;html=1;" parent="1" vertex="1">
          <mxGeometry x="1720" y="990" width="120" height="60" as="geometry" />
        </mxCell>
        <mxCell id="P9xloDru6htHzliWN8LX-238" value="" style="edgeStyle=orthogonalEdgeStyle;rounded=0;orthogonalLoop=1;jettySize=auto;html=1;" parent="1" source="P9xloDru6htHzliWN8LX-235" target="P9xloDru6htHzliWN8LX-237" edge="1">
          <mxGeometry relative="1" as="geometry" />
        </mxCell>
        <mxCell id="P9xloDru6htHzliWN8LX-235" value="release bread, letting it fall" style="whiteSpace=wrap;html=1;" parent="1" vertex="1">
          <mxGeometry x="1920" y="990" width="120" height="60" as="geometry" />
        </mxCell>
        <mxCell id="P9xloDru6htHzliWN8LX-240" value="" style="edgeStyle=orthogonalEdgeStyle;rounded=0;orthogonalLoop=1;jettySize=auto;html=1;" parent="1" source="P9xloDru6htHzliWN8LX-237" target="P9xloDru6htHzliWN8LX-239" edge="1">
          <mxGeometry relative="1" as="geometry" />
        </mxCell>
        <mxCell id="P9xloDru6htHzliWN8LX-237" value="lightly grip top one, and pull to side untill they aren&#39;t overlapping. Then release, ensuring both are on the plate, but not overlapping one another" style="whiteSpace=wrap;html=1;" parent="1" vertex="1">
          <mxGeometry x="1920" y="790" width="120" height="120" as="geometry" />
        </mxCell>
        <mxCell id="P9xloDru6htHzliWN8LX-239" value="put left hand over knife" style="whiteSpace=wrap;html=1;" parent="1" vertex="1">
          <mxGeometry x="1920" y="705" width="120" height="60" as="geometry" />
        </mxCell>
        <UserObject label="G&lt;span style=&quot;font-size: 10px;&quot;&gt;1&lt;/span&gt;" id="P9xloDru6htHzliWN8LX-241">
          <mxCell style="shape=offPageConnector;whiteSpace=wrap;html=1;" parent="1" vertex="1">
            <mxGeometry x="1150" y="980" width="80" height="80" as="geometry" />
          </mxCell>
        </UserObject>
        <mxCell id="SyFhcPU_PdXpoVqOvdB0-2" value="" style="edgeStyle=orthogonalEdgeStyle;rounded=0;orthogonalLoop=1;jettySize=auto;html=1;" parent="1" source="P9xloDru6htHzliWN8LX-242" target="SyFhcPU_PdXpoVqOvdB0-1" edge="1">
          <mxGeometry relative="1" as="geometry" />
        </mxCell>
        <UserObject label="G&lt;span style=&quot;font-size: 10px;&quot;&gt;1&lt;/span&gt;" id="P9xloDru6htHzliWN8LX-242">
          <mxCell style="shape=offPageConnector;whiteSpace=wrap;html=1;" parent="1" vertex="1">
            <mxGeometry x="1940" y="570" width="80" height="80" as="geometry" />
          </mxCell>
        </UserObject>
        <mxCell id="P9xloDru6htHzliWN8LX-243" style="edgeStyle=orthogonalEdgeStyle;rounded=0;orthogonalLoop=1;jettySize=auto;html=1;entryX=0.6;entryY=0.95;entryDx=0;entryDy=0;entryPerimeter=0;" parent="1" source="P9xloDru6htHzliWN8LX-239" target="P9xloDru6htHzliWN8LX-242" edge="1">
          <mxGeometry relative="1" as="geometry" />
        </mxCell>
        <mxCell id="SyFhcPU_PdXpoVqOvdB0-4" value="" style="edgeStyle=orthogonalEdgeStyle;rounded=0;orthogonalLoop=1;jettySize=auto;html=1;" parent="1" source="SyFhcPU_PdXpoVqOvdB0-1" target="SyFhcPU_PdXpoVqOvdB0-3" edge="1">
          <mxGeometry relative="1" as="geometry" />
        </mxCell>
        <mxCell id="SyFhcPU_PdXpoVqOvdB0-1" value="get jelly on knife by moving it while still inside jar" style="whiteSpace=wrap;html=1;" parent="1" vertex="1">
          <mxGeometry x="1910" y="420" width="120" height="60" as="geometry" />
        </mxCell>
        <mxCell id="igwHj4a1U31dDTzVlBEq-4" value="" style="edgeStyle=orthogonalEdgeStyle;rounded=0;orthogonalLoop=1;jettySize=auto;html=1;" edge="1" parent="1" source="SyFhcPU_PdXpoVqOvdB0-3" target="igwHj4a1U31dDTzVlBEq-3">
          <mxGeometry relative="1" as="geometry" />
        </mxCell>
        <mxCell id="SyFhcPU_PdXpoVqOvdB0-3" value="lift up, move it twords bread" style="whiteSpace=wrap;html=1;" parent="1" vertex="1">
          <mxGeometry x="1910" y="280" width="120" height="60" as="geometry" />
        </mxCell>
        <mxCell id="igwHj4a1U31dDTzVlBEq-6" value="" style="edgeStyle=orthogonalEdgeStyle;rounded=0;orthogonalLoop=1;jettySize=auto;html=1;" edge="1" parent="1" source="igwHj4a1U31dDTzVlBEq-3" target="igwHj4a1U31dDTzVlBEq-5">
          <mxGeometry relative="1" as="geometry" />
        </mxCell>
        <mxCell id="igwHj4a1U31dDTzVlBEq-3" value="once able, turn knife parallel to table" style="whiteSpace=wrap;html=1;" vertex="1" parent="1">
          <mxGeometry x="1910" y="140" width="120" height="60" as="geometry" />
        </mxCell>
        <mxCell id="igwHj4a1U31dDTzVlBEq-8" value="" style="edgeStyle=orthogonalEdgeStyle;rounded=0;orthogonalLoop=1;jettySize=auto;html=1;" edge="1" parent="1" source="igwHj4a1U31dDTzVlBEq-5" target="igwHj4a1U31dDTzVlBEq-7">
          <mxGeometry relative="1" as="geometry" />
        </mxCell>
        <mxCell id="igwHj4a1U31dDTzVlBEq-5" value="lower knife twords leftmost slice of bread" style="whiteSpace=wrap;html=1;" vertex="1" parent="1">
          <mxGeometry x="1910" width="120" height="60" as="geometry" />
        </mxCell>
        <mxCell id="igwHj4a1U31dDTzVlBEq-10" value="" style="edgeStyle=orthogonalEdgeStyle;rounded=0;orthogonalLoop=1;jettySize=auto;html=1;" edge="1" parent="1" source="igwHj4a1U31dDTzVlBEq-7" target="igwHj4a1U31dDTzVlBEq-9">
          <mxGeometry relative="1" as="geometry" />
        </mxCell>
        <mxCell id="igwHj4a1U31dDTzVlBEq-7" value="spread jelly bread" style="whiteSpace=wrap;html=1;" vertex="1" parent="1">
          <mxGeometry x="2110" width="120" height="60" as="geometry" />
        </mxCell>
        <mxCell id="igwHj4a1U31dDTzVlBEq-12" value="" style="edgeStyle=orthogonalEdgeStyle;rounded=0;orthogonalLoop=1;jettySize=auto;html=1;" edge="1" parent="1" source="igwHj4a1U31dDTzVlBEq-9" target="igwHj4a1U31dDTzVlBEq-11">
          <mxGeometry relative="1" as="geometry" />
        </mxCell>
        <mxCell id="igwHj4a1U31dDTzVlBEq-9" value="lift knife up" style="whiteSpace=wrap;html=1;" vertex="1" parent="1">
          <mxGeometry x="2110" y="140" width="120" height="60" as="geometry" />
        </mxCell>
        <mxCell id="igwHj4a1U31dDTzVlBEq-14" value="" style="edgeStyle=orthogonalEdgeStyle;rounded=0;orthogonalLoop=1;jettySize=auto;html=1;" edge="1" parent="1" source="igwHj4a1U31dDTzVlBEq-11" target="igwHj4a1U31dDTzVlBEq-13">
          <mxGeometry relative="1" as="geometry" />
        </mxCell>
        <mxCell id="igwHj4a1U31dDTzVlBEq-11" value="twist so it&#39;s faceing down twords table" style="whiteSpace=wrap;html=1;" vertex="1" parent="1">
          <mxGeometry x="2110" y="280" width="120" height="60" as="geometry" />
        </mxCell>
        <mxCell id="igwHj4a1U31dDTzVlBEq-16" value="" style="edgeStyle=orthogonalEdgeStyle;rounded=0;orthogonalLoop=1;jettySize=auto;html=1;" edge="1" parent="1" source="igwHj4a1U31dDTzVlBEq-13" target="igwHj4a1U31dDTzVlBEq-15">
          <mxGeometry relative="1" as="geometry" />
        </mxCell>
        <mxCell id="igwHj4a1U31dDTzVlBEq-13" value="put knife into jar, don&#39;t let go" style="whiteSpace=wrap;html=1;" vertex="1" parent="1">
          <mxGeometry x="2110" y="420" width="120" height="60" as="geometry" />
        </mxCell>
        <mxCell id="igwHj4a1U31dDTzVlBEq-18" value="" style="edgeStyle=orthogonalEdgeStyle;rounded=0;orthogonalLoop=1;jettySize=auto;html=1;" edge="1" parent="1" source="igwHj4a1U31dDTzVlBEq-15" target="igwHj4a1U31dDTzVlBEq-17">
          <mxGeometry relative="1" as="geometry" />
        </mxCell>
        <mxCell id="igwHj4a1U31dDTzVlBEq-15" value="ask Charlie if there is enough jelly on the bread" style="whiteSpace=wrap;html=1;" vertex="1" parent="1">
          <mxGeometry x="2110" y="560" width="120" height="60" as="geometry" />
        </mxCell>
        <mxCell id="igwHj4a1U31dDTzVlBEq-19" value="no" style="edgeStyle=orthogonalEdgeStyle;rounded=0;orthogonalLoop=1;jettySize=auto;html=1;entryX=1;entryY=0.5;entryDx=0;entryDy=0;" edge="1" parent="1" source="igwHj4a1U31dDTzVlBEq-17" target="SyFhcPU_PdXpoVqOvdB0-1">
          <mxGeometry relative="1" as="geometry" />
        </mxCell>
        <mxCell id="igwHj4a1U31dDTzVlBEq-21" value="yes" style="edgeStyle=orthogonalEdgeStyle;rounded=0;orthogonalLoop=1;jettySize=auto;html=1;" edge="1" parent="1" source="igwHj4a1U31dDTzVlBEq-17" target="igwHj4a1U31dDTzVlBEq-20">
          <mxGeometry relative="1" as="geometry" />
        </mxCell>
        <mxCell id="igwHj4a1U31dDTzVlBEq-17" value="Was the answer &quot;Yes&quot;?" style="rhombus;whiteSpace=wrap;html=1;" vertex="1" parent="1">
          <mxGeometry x="2130" y="690" width="80" height="80" as="geometry" />
        </mxCell>
        <mxCell id="igwHj4a1U31dDTzVlBEq-23" value="" style="edgeStyle=orthogonalEdgeStyle;rounded=0;orthogonalLoop=1;jettySize=auto;html=1;" edge="1" parent="1" source="igwHj4a1U31dDTzVlBEq-20" target="igwHj4a1U31dDTzVlBEq-22">
          <mxGeometry relative="1" as="geometry" />
        </mxCell>
        <mxCell id="igwHj4a1U31dDTzVlBEq-20" value="release knife" style="whiteSpace=wrap;html=1;" vertex="1" parent="1">
          <mxGeometry x="2110" y="860" width="120" height="60" as="geometry" />
        </mxCell>
        <mxCell id="igwHj4a1U31dDTzVlBEq-25" value="" style="edgeStyle=orthogonalEdgeStyle;rounded=0;orthogonalLoop=1;jettySize=auto;html=1;" edge="1" parent="1" source="igwHj4a1U31dDTzVlBEq-22" target="igwHj4a1U31dDTzVlBEq-24">
          <mxGeometry relative="1" as="geometry" />
        </mxCell>
        <mxCell id="igwHj4a1U31dDTzVlBEq-22" value="grab rightmost slice of bread" style="whiteSpace=wrap;html=1;" vertex="1" parent="1">
          <mxGeometry x="2110" y="1000" width="120" height="60" as="geometry" />
        </mxCell>
        <mxCell id="igwHj4a1U31dDTzVlBEq-27" value="" style="edgeStyle=orthogonalEdgeStyle;rounded=0;orthogonalLoop=1;jettySize=auto;html=1;" edge="1" parent="1" source="igwHj4a1U31dDTzVlBEq-24" target="igwHj4a1U31dDTzVlBEq-26">
          <mxGeometry relative="1" as="geometry" />
        </mxCell>
        <mxCell id="igwHj4a1U31dDTzVlBEq-24" value="move rightmost slice of bread so it&#39;s over the leftmost, and realease" style="whiteSpace=wrap;html=1;" vertex="1" parent="1">
          <mxGeometry x="2310" y="1000" width="120" height="60" as="geometry" />
        </mxCell>
        <mxCell id="igwHj4a1U31dDTzVlBEq-26" value="say &quot;it&#39;s done&quot;" style="whiteSpace=wrap;html=1;" vertex="1" parent="1">
          <mxGeometry x="2310" y="860" width="120" height="60" as="geometry" />
        </mxCell>
      </root>
    </mxGraphModel>
  </diagram>
  <diagram id="7cXj4y6heqXRpSV6BM60" name="G1">
    <mxGraphModel dx="1204" dy="904" grid="1" gridSize="10" guides="1" tooltips="1" connect="1" arrows="1" fold="1" page="1" pageScale="1" pageWidth="850" pageHeight="1100" math="0" shadow="0">
      <root>
        <mxCell id="0" />
        <mxCell id="1" parent="0" />
        <mxCell id="PXn4jD1XUBPjTQ0HKNMs-2" value="" style="edgeStyle=orthogonalEdgeStyle;rounded=0;orthogonalLoop=1;jettySize=auto;html=1;" edge="1" parent="1" source="BDW5VPGc2TS6hJjl98-U-1" target="PXn4jD1XUBPjTQ0HKNMs-1">
          <mxGeometry relative="1" as="geometry" />
        </mxCell>
        <mxCell id="BDW5VPGc2TS6hJjl98-U-1" value="G&lt;sub&gt;1&lt;/sub&gt;" style="shape=offPageConnector;whiteSpace=wrap;html=1;" parent="1" vertex="1">
          <mxGeometry x="40" width="80" height="80" as="geometry" />
        </mxCell>
        <mxCell id="AKmueOaIY43V8JIsHrLU-49" value="" style="edgeStyle=orthogonalEdgeStyle;rounded=0;orthogonalLoop=1;jettySize=auto;html=1;" edge="1" parent="1" source="Uvgm0Kk2IQCyqfuzoA9w-2" target="AKmueOaIY43V8JIsHrLU-35">
          <mxGeometry relative="1" as="geometry" />
        </mxCell>
        <mxCell id="Uvgm0Kk2IQCyqfuzoA9w-2" value="move the hand that isn&#39;t over the object over your current hand" style="whiteSpace=wrap;html=1;" parent="1" vertex="1">
          <mxGeometry x="430" y="865" width="120" height="60" as="geometry" />
        </mxCell>
        <mxCell id="tJNSiagrXFWN7Puzhlna-34" style="edgeStyle=orthogonalEdgeStyle;rounded=0;orthogonalLoop=1;jettySize=auto;html=1;entryX=0.5;entryY=0;entryDx=0;entryDy=0;" parent="1" source="tJNSiagrXFWN7Puzhlna-1" target="tJNSiagrXFWN7Puzhlna-31" edge="1">
          <mxGeometry relative="1" as="geometry" />
        </mxCell>
        <mxCell id="tJNSiagrXFWN7Puzhlna-1" value="m" style="shape=offPageConnector;whiteSpace=wrap;html=1;" parent="1" vertex="1">
          <mxGeometry x="140" width="80" height="80" as="geometry" />
        </mxCell>
        <mxCell id="tJNSiagrXFWN7Puzhlna-2" value="m" style="shape=offPageConnector;whiteSpace=wrap;html=1;" parent="1" vertex="1">
          <mxGeometry x="245" y="200" width="80" height="80" as="geometry" />
        </mxCell>
        <mxCell id="tJNSiagrXFWN7Puzhlna-58" value="yes" style="edgeStyle=orthogonalEdgeStyle;rounded=0;orthogonalLoop=1;jettySize=auto;html=1;exitX=0;exitY=0;exitDx=0;exitDy=0;" parent="1" source="tJNSiagrXFWN7Puzhlna-3" target="tJNSiagrXFWN7Puzhlna-28" edge="1">
          <mxGeometry relative="1" as="geometry" />
        </mxCell>
        <mxCell id="tJNSiagrXFWN7Puzhlna-59" value="" style="edgeStyle=orthogonalEdgeStyle;rounded=0;orthogonalLoop=1;jettySize=auto;html=1;" parent="1" source="tJNSiagrXFWN7Puzhlna-3" target="tJNSiagrXFWN7Puzhlna-56" edge="1">
          <mxGeometry relative="1" as="geometry" />
        </mxCell>
        <mxCell id="tJNSiagrXFWN7Puzhlna-60" value="nol" style="edgeStyle=orthogonalEdgeStyle;rounded=0;orthogonalLoop=1;jettySize=auto;html=1;" parent="1" source="tJNSiagrXFWN7Puzhlna-3" target="tJNSiagrXFWN7Puzhlna-56" edge="1">
          <mxGeometry relative="1" as="geometry" />
        </mxCell>
        <mxCell id="tJNSiagrXFWN7Puzhlna-3" value="is it your left hand over object" style="rhombus;whiteSpace=wrap;html=1;" parent="1" vertex="1">
          <mxGeometry x="685" y="210" width="100" height="100" as="geometry" />
        </mxCell>
        <mxCell id="tJNSiagrXFWN7Puzhlna-65" style="edgeStyle=orthogonalEdgeStyle;rounded=0;orthogonalLoop=1;jettySize=auto;html=1;entryX=1;entryY=1;entryDx=0;entryDy=0;" parent="1" source="tJNSiagrXFWN7Puzhlna-6" target="tJNSiagrXFWN7Puzhlna-56" edge="1">
          <mxGeometry relative="1" as="geometry">
            <Array as="points">
              <mxPoint x="618" y="365" />
            </Array>
          </mxGeometry>
        </mxCell>
        <mxCell id="tJNSiagrXFWN7Puzhlna-6" value="move hand right 1 cm, maintaining identical distance from coutertop, and keeping your hand parallel to table" style="whiteSpace=wrap;html=1;" parent="1" vertex="1">
          <mxGeometry x="530" y="380" width="120" height="90" as="geometry" />
        </mxCell>
        <mxCell id="AKmueOaIY43V8JIsHrLU-80" value="" style="edgeStyle=orthogonalEdgeStyle;rounded=0;orthogonalLoop=1;jettySize=auto;html=1;" edge="1" parent="1" source="tJNSiagrXFWN7Puzhlna-8" target="AKmueOaIY43V8JIsHrLU-79">
          <mxGeometry relative="1" as="geometry" />
        </mxCell>
        <mxCell id="tJNSiagrXFWN7Puzhlna-8" value="move hand down untill you hit the counter or object" style="whiteSpace=wrap;html=1;" parent="1" vertex="1">
          <mxGeometry x="595" y="1010" width="110" height="60" as="geometry" />
        </mxCell>
        <mxCell id="tJNSiagrXFWN7Puzhlna-62" value="no" style="edgeStyle=orthogonalEdgeStyle;rounded=0;orthogonalLoop=1;jettySize=auto;html=1;" parent="1" source="tJNSiagrXFWN7Puzhlna-28" target="tJNSiagrXFWN7Puzhlna-61" edge="1">
          <mxGeometry relative="1" as="geometry">
            <Array as="points">
              <mxPoint x="595" y="120" />
              <mxPoint x="595" y="120" />
            </Array>
          </mxGeometry>
        </mxCell>
        <mxCell id="AKmueOaIY43V8JIsHrLU-8" value="yes" style="edgeStyle=orthogonalEdgeStyle;rounded=0;orthogonalLoop=1;jettySize=auto;html=1;" edge="1" parent="1" source="tJNSiagrXFWN7Puzhlna-28" target="AKmueOaIY43V8JIsHrLU-5">
          <mxGeometry relative="1" as="geometry" />
        </mxCell>
        <mxCell id="tJNSiagrXFWN7Puzhlna-28" value="is there no more than 10% of your palm above the object" style="rhombus;whiteSpace=wrap;html=1;" parent="1" vertex="1">
          <mxGeometry x="535" y="130" width="110" height="110" as="geometry" />
        </mxCell>
        <mxCell id="tJNSiagrXFWN7Puzhlna-33" value="no" style="edgeStyle=orthogonalEdgeStyle;rounded=0;orthogonalLoop=1;jettySize=auto;html=1;" parent="1" source="tJNSiagrXFWN7Puzhlna-31" target="tJNSiagrXFWN7Puzhlna-32" edge="1">
          <mxGeometry relative="1" as="geometry">
            <Array as="points">
              <mxPoint x="795" y="100" />
              <mxPoint x="795" y="30" />
            </Array>
          </mxGeometry>
        </mxCell>
        <mxCell id="tJNSiagrXFWN7Puzhlna-39" value="yes" style="edgeStyle=orthogonalEdgeStyle;rounded=0;orthogonalLoop=1;jettySize=auto;html=1;" parent="1" source="tJNSiagrXFWN7Puzhlna-31" target="tJNSiagrXFWN7Puzhlna-35" edge="1">
          <mxGeometry relative="1" as="geometry">
            <Array as="points">
              <mxPoint x="825" y="150" />
              <mxPoint x="825" y="150" />
            </Array>
            <mxPoint as="offset" />
          </mxGeometry>
        </mxCell>
        <mxCell id="tJNSiagrXFWN7Puzhlna-31" value="is your palm parallel with the tabletop" style="rhombus;whiteSpace=wrap;html=1;" parent="1" vertex="1">
          <mxGeometry x="685" y="90" width="100" height="100" as="geometry" />
        </mxCell>
        <mxCell id="tJNSiagrXFWN7Puzhlna-36" value="" style="edgeStyle=orthogonalEdgeStyle;rounded=0;orthogonalLoop=1;jettySize=auto;html=1;" parent="1" source="tJNSiagrXFWN7Puzhlna-32" target="tJNSiagrXFWN7Puzhlna-35" edge="1">
          <mxGeometry relative="1" as="geometry">
            <Array as="points">
              <mxPoint x="895" y="70" />
              <mxPoint x="895" y="70" />
            </Array>
          </mxGeometry>
        </mxCell>
        <mxCell id="tJNSiagrXFWN7Puzhlna-32" value="rotate hand untill it is parallel with table top" style="whiteSpace=wrap;html=1;" parent="1" vertex="1">
          <mxGeometry x="825" width="120" height="60" as="geometry" />
        </mxCell>
        <mxCell id="tJNSiagrXFWN7Puzhlna-38" value="no" style="edgeStyle=orthogonalEdgeStyle;rounded=0;orthogonalLoop=1;jettySize=auto;html=1;" parent="1" source="tJNSiagrXFWN7Puzhlna-35" target="tJNSiagrXFWN7Puzhlna-37" edge="1">
          <mxGeometry relative="1" as="geometry">
            <Array as="points">
              <mxPoint x="885" y="230" />
              <mxPoint x="885" y="230" />
            </Array>
          </mxGeometry>
        </mxCell>
        <mxCell id="tJNSiagrXFWN7Puzhlna-35" value="is your palm faceing down" style="rhombus;whiteSpace=wrap;html=1;" parent="1" vertex="1">
          <mxGeometry x="845" y="80" width="100" height="100" as="geometry" />
        </mxCell>
        <mxCell id="tJNSiagrXFWN7Puzhlna-45" value="" style="edgeStyle=orthogonalEdgeStyle;rounded=0;orthogonalLoop=1;jettySize=auto;html=1;" parent="1" source="tJNSiagrXFWN7Puzhlna-37" target="tJNSiagrXFWN7Puzhlna-44" edge="1">
          <mxGeometry relative="1" as="geometry" />
        </mxCell>
        <mxCell id="tJNSiagrXFWN7Puzhlna-37" value="rotate hand 180 clockwise, stoping if you encounter any more pain than usual for moving" style="whiteSpace=wrap;html=1;" parent="1" vertex="1">
          <mxGeometry x="815" y="220" width="120" height="70" as="geometry" />
        </mxCell>
        <mxCell id="tJNSiagrXFWN7Puzhlna-47" value="yes" style="edgeStyle=orthogonalEdgeStyle;rounded=0;orthogonalLoop=1;jettySize=auto;html=1;" parent="1" source="tJNSiagrXFWN7Puzhlna-44" target="tJNSiagrXFWN7Puzhlna-46" edge="1">
          <mxGeometry relative="1" as="geometry" />
        </mxCell>
        <mxCell id="AKmueOaIY43V8JIsHrLU-73" value="no" style="edgeStyle=orthogonalEdgeStyle;rounded=0;orthogonalLoop=1;jettySize=auto;html=1;entryX=0.5;entryY=0;entryDx=0;entryDy=0;" edge="1" parent="1" source="tJNSiagrXFWN7Puzhlna-44" target="AKmueOaIY43V8JIsHrLU-68">
          <mxGeometry relative="1" as="geometry">
            <Array as="points">
              <mxPoint x="740" y="340" />
            </Array>
          </mxGeometry>
        </mxCell>
        <mxCell id="tJNSiagrXFWN7Puzhlna-44" value="did you have to stop" style="rhombus;whiteSpace=wrap;html=1;" parent="1" vertex="1">
          <mxGeometry x="980" y="320" width="80" height="80" as="geometry" />
        </mxCell>
        <mxCell id="tJNSiagrXFWN7Puzhlna-50" value="" style="edgeStyle=orthogonalEdgeStyle;rounded=0;orthogonalLoop=1;jettySize=auto;html=1;" parent="1" source="tJNSiagrXFWN7Puzhlna-46" target="tJNSiagrXFWN7Puzhlna-49" edge="1">
          <mxGeometry relative="1" as="geometry" />
        </mxCell>
        <mxCell id="tJNSiagrXFWN7Puzhlna-46" value="rotate hand counter clockwise untill palm is parallel with table" style="whiteSpace=wrap;html=1;" parent="1" vertex="1">
          <mxGeometry x="960" y="440" width="110" height="80" as="geometry" />
        </mxCell>
        <mxCell id="AKmueOaIY43V8JIsHrLU-72" value="" style="edgeStyle=orthogonalEdgeStyle;rounded=0;orthogonalLoop=1;jettySize=auto;html=1;" edge="1" parent="1" source="tJNSiagrXFWN7Puzhlna-49" target="AKmueOaIY43V8JIsHrLU-68">
          <mxGeometry relative="1" as="geometry" />
        </mxCell>
        <mxCell id="tJNSiagrXFWN7Puzhlna-49" value="rotate hand 180 degrees counter clockwise" style="whiteSpace=wrap;html=1;" parent="1" vertex="1">
          <mxGeometry x="825" y="360" width="120" height="60" as="geometry" />
        </mxCell>
        <mxCell id="tJNSiagrXFWN7Puzhlna-63" style="edgeStyle=orthogonalEdgeStyle;rounded=0;orthogonalLoop=1;jettySize=auto;html=1;" parent="1" source="tJNSiagrXFWN7Puzhlna-56" target="tJNSiagrXFWN7Puzhlna-6" edge="1">
          <mxGeometry relative="1" as="geometry" />
        </mxCell>
        <mxCell id="tJNSiagrXFWN7Puzhlna-64" value="no" style="edgeStyle=orthogonalEdgeStyle;rounded=0;orthogonalLoop=1;jettySize=auto;html=1;" parent="1" source="tJNSiagrXFWN7Puzhlna-56" target="tJNSiagrXFWN7Puzhlna-6" edge="1">
          <mxGeometry relative="1" as="geometry" />
        </mxCell>
        <mxCell id="AKmueOaIY43V8JIsHrLU-4" value="" style="edgeStyle=orthogonalEdgeStyle;rounded=0;orthogonalLoop=1;jettySize=auto;html=1;" edge="1" parent="1" source="tJNSiagrXFWN7Puzhlna-56" target="AKmueOaIY43V8JIsHrLU-3">
          <mxGeometry relative="1" as="geometry" />
        </mxCell>
        <mxCell id="tJNSiagrXFWN7Puzhlna-56" value="is there less than 10% of your hand over the object" style="rhombus;whiteSpace=wrap;html=1;" parent="1" vertex="1">
          <mxGeometry x="535" y="250" width="110" height="110" as="geometry" />
        </mxCell>
        <mxCell id="AKmueOaIY43V8JIsHrLU-67" style="edgeStyle=orthogonalEdgeStyle;rounded=0;orthogonalLoop=1;jettySize=auto;html=1;entryX=0;entryY=0;entryDx=0;entryDy=0;" edge="1" parent="1" source="tJNSiagrXFWN7Puzhlna-61" target="tJNSiagrXFWN7Puzhlna-28">
          <mxGeometry relative="1" as="geometry">
            <Array as="points">
              <mxPoint x="470" y="158" />
            </Array>
          </mxGeometry>
        </mxCell>
        <mxCell id="tJNSiagrXFWN7Puzhlna-61" value="move hand left1 cm, maintaining identical distance from coutertop, and keeping your hand parallel to table" style="whiteSpace=wrap;html=1;" parent="1" vertex="1">
          <mxGeometry x="375" y="50" width="120" height="90" as="geometry" />
        </mxCell>
        <mxCell id="AKmueOaIY43V8JIsHrLU-3" value="rotate hand&amp;nbsp; 90 degrees counter-clockwise, such that your fingers are still pointing away from you" style="whiteSpace=wrap;html=1;" vertex="1" parent="1">
          <mxGeometry x="370" y="275" width="120" height="85" as="geometry" />
        </mxCell>
        <mxCell id="AKmueOaIY43V8JIsHrLU-6" style="edgeStyle=orthogonalEdgeStyle;rounded=0;orthogonalLoop=1;jettySize=auto;html=1;" edge="1" parent="1" source="AKmueOaIY43V8JIsHrLU-5" target="tJNSiagrXFWN7Puzhlna-2">
          <mxGeometry relative="1" as="geometry">
            <mxPoint x="310" y="210" as="targetPoint" />
          </mxGeometry>
        </mxCell>
        <mxCell id="AKmueOaIY43V8JIsHrLU-5" value="rotate hand&amp;nbsp; 90 degrees clockwise, such that your fingers are still pointing away from you" style="whiteSpace=wrap;html=1;" vertex="1" parent="1">
          <mxGeometry x="375" y="170" width="120" height="70" as="geometry" />
        </mxCell>
        <mxCell id="AKmueOaIY43V8JIsHrLU-7" style="edgeStyle=orthogonalEdgeStyle;rounded=0;orthogonalLoop=1;jettySize=auto;html=1;entryX=0.925;entryY=0.65;entryDx=0;entryDy=0;entryPerimeter=0;" edge="1" parent="1" source="AKmueOaIY43V8JIsHrLU-3" target="tJNSiagrXFWN7Puzhlna-2">
          <mxGeometry relative="1" as="geometry">
            <mxPoint x="321.99" y="268.02" as="targetPoint" />
          </mxGeometry>
        </mxCell>
        <mxCell id="AKmueOaIY43V8JIsHrLU-76" value="yes" style="edgeStyle=orthogonalEdgeStyle;rounded=0;orthogonalLoop=1;jettySize=auto;html=1;entryX=0;entryY=0;entryDx=0;entryDy=0;" edge="1" parent="1" source="AKmueOaIY43V8JIsHrLU-10" target="AKmueOaIY43V8JIsHrLU-15">
          <mxGeometry relative="1" as="geometry">
            <Array as="points">
              <mxPoint x="90" y="520" />
              <mxPoint x="530" y="520" />
            </Array>
          </mxGeometry>
        </mxCell>
        <mxCell id="AKmueOaIY43V8JIsHrLU-77" value="no" style="edgeStyle=orthogonalEdgeStyle;rounded=0;orthogonalLoop=1;jettySize=auto;html=1;entryX=1;entryY=0.5;entryDx=0;entryDy=0;" edge="1" parent="1" source="AKmueOaIY43V8JIsHrLU-10">
          <mxGeometry x="-0.8029" relative="1" as="geometry">
            <mxPoint x="105.00000000000023" y="185" as="sourcePoint" />
            <mxPoint x="675" y="915" as="targetPoint" />
            <Array as="points">
              <mxPoint x="205" y="250" />
              <mxPoint x="205" y="340" />
              <mxPoint x="295" y="340" />
              <mxPoint x="295" y="500" />
              <mxPoint x="710" y="500" />
              <mxPoint x="710" y="915" />
            </Array>
            <mxPoint y="-1" as="offset" />
          </mxGeometry>
        </mxCell>
        <mxCell id="AKmueOaIY43V8JIsHrLU-10" value="is object utensil?" style="rhombus;whiteSpace=wrap;html=1;" vertex="1" parent="1">
          <mxGeometry x="50" y="230" width="80" height="80" as="geometry" />
        </mxCell>
        <mxCell id="AKmueOaIY43V8JIsHrLU-18" value="yes" style="edgeStyle=orthogonalEdgeStyle;rounded=0;orthogonalLoop=1;jettySize=auto;html=1;" edge="1" parent="1" source="AKmueOaIY43V8JIsHrLU-15" target="AKmueOaIY43V8JIsHrLU-17">
          <mxGeometry relative="1" as="geometry" />
        </mxCell>
        <mxCell id="AKmueOaIY43V8JIsHrLU-20" value="no" style="edgeStyle=orthogonalEdgeStyle;rounded=0;orthogonalLoop=1;jettySize=auto;html=1;" edge="1" parent="1" source="AKmueOaIY43V8JIsHrLU-15" target="AKmueOaIY43V8JIsHrLU-19">
          <mxGeometry relative="1" as="geometry" />
        </mxCell>
        <mxCell id="AKmueOaIY43V8JIsHrLU-15" value="is spoon?" style="rhombus;whiteSpace=wrap;html=1;" vertex="1" parent="1">
          <mxGeometry x="510" y="575" width="80" height="80" as="geometry" />
        </mxCell>
        <mxCell id="AKmueOaIY43V8JIsHrLU-53" value="no" style="edgeStyle=orthogonalEdgeStyle;rounded=0;orthogonalLoop=1;jettySize=auto;html=1;" edge="1" parent="1" source="AKmueOaIY43V8JIsHrLU-17" target="Uvgm0Kk2IQCyqfuzoA9w-2">
          <mxGeometry relative="1" as="geometry" />
        </mxCell>
        <mxCell id="AKmueOaIY43V8JIsHrLU-59" value="yes" style="edgeStyle=orthogonalEdgeStyle;rounded=0;orthogonalLoop=1;jettySize=auto;html=1;entryX=0.75;entryY=0;entryDx=0;entryDy=0;" edge="1" parent="1" source="AKmueOaIY43V8JIsHrLU-17" target="AKmueOaIY43V8JIsHrLU-55">
          <mxGeometry relative="1" as="geometry">
            <Array as="points">
              <mxPoint x="610" y="755" />
              <mxPoint x="610" y="805" />
              <mxPoint x="650" y="805" />
            </Array>
          </mxGeometry>
        </mxCell>
        <mxCell id="AKmueOaIY43V8JIsHrLU-17" value="is the hand over the object the one I normally use for spoons?" style="rhombus;whiteSpace=wrap;html=1;" vertex="1" parent="1">
          <mxGeometry x="490" y="710" width="100" height="105" as="geometry" />
        </mxCell>
        <mxCell id="AKmueOaIY43V8JIsHrLU-22" value="yes" style="edgeStyle=orthogonalEdgeStyle;rounded=0;orthogonalLoop=1;jettySize=auto;html=1;" edge="1" parent="1" source="AKmueOaIY43V8JIsHrLU-19" target="AKmueOaIY43V8JIsHrLU-21">
          <mxGeometry relative="1" as="geometry" />
        </mxCell>
        <mxCell id="AKmueOaIY43V8JIsHrLU-24" value="no" style="edgeStyle=orthogonalEdgeStyle;rounded=0;orthogonalLoop=1;jettySize=auto;html=1;" edge="1" parent="1" source="AKmueOaIY43V8JIsHrLU-19" target="AKmueOaIY43V8JIsHrLU-23">
          <mxGeometry relative="1" as="geometry" />
        </mxCell>
        <mxCell id="AKmueOaIY43V8JIsHrLU-19" value="is knife?" style="rhombus;whiteSpace=wrap;html=1;" vertex="1" parent="1">
          <mxGeometry x="350" y="575" width="80" height="80" as="geometry" />
        </mxCell>
        <mxCell id="AKmueOaIY43V8JIsHrLU-64" value="yes" style="edgeStyle=orthogonalEdgeStyle;rounded=0;orthogonalLoop=1;jettySize=auto;html=1;" edge="1" parent="1" source="AKmueOaIY43V8JIsHrLU-21" target="AKmueOaIY43V8JIsHrLU-63">
          <mxGeometry x="0.5161" relative="1" as="geometry">
            <Array as="points">
              <mxPoint x="385" y="657.5" />
              <mxPoint x="310" y="657.5" />
            </Array>
            <mxPoint as="offset" />
          </mxGeometry>
        </mxCell>
        <mxCell id="AKmueOaIY43V8JIsHrLU-21" value="is the hand over the object the one I normally use for knifes?" style="rhombus;whiteSpace=wrap;html=1;" vertex="1" parent="1">
          <mxGeometry x="335" y="700" width="100" height="105" as="geometry" />
        </mxCell>
        <mxCell id="AKmueOaIY43V8JIsHrLU-30" value="yes" style="edgeStyle=orthogonalEdgeStyle;rounded=0;orthogonalLoop=1;jettySize=auto;html=1;" edge="1" parent="1" source="AKmueOaIY43V8JIsHrLU-23" target="AKmueOaIY43V8JIsHrLU-29">
          <mxGeometry relative="1" as="geometry" />
        </mxCell>
        <mxCell id="AKmueOaIY43V8JIsHrLU-32" value="no" style="edgeStyle=orthogonalEdgeStyle;rounded=0;orthogonalLoop=1;jettySize=auto;html=1;" edge="1" parent="1" source="AKmueOaIY43V8JIsHrLU-23" target="AKmueOaIY43V8JIsHrLU-31">
          <mxGeometry relative="1" as="geometry" />
        </mxCell>
        <mxCell id="AKmueOaIY43V8JIsHrLU-23" value="is fork?" style="rhombus;whiteSpace=wrap;html=1;" vertex="1" parent="1">
          <mxGeometry x="190" y="575" width="80" height="80" as="geometry" />
        </mxCell>
        <mxCell id="AKmueOaIY43V8JIsHrLU-54" value="no" style="edgeStyle=orthogonalEdgeStyle;rounded=0;orthogonalLoop=1;jettySize=auto;html=1;entryX=0;entryY=0;entryDx=0;entryDy=0;" edge="1" parent="1" source="AKmueOaIY43V8JIsHrLU-29" target="Uvgm0Kk2IQCyqfuzoA9w-2">
          <mxGeometry relative="1" as="geometry">
            <Array as="points">
              <mxPoint x="230" y="855" />
              <mxPoint x="430" y="855" />
            </Array>
          </mxGeometry>
        </mxCell>
        <mxCell id="AKmueOaIY43V8JIsHrLU-29" value="is the hand over the object the one I normally use for forks?" style="rhombus;whiteSpace=wrap;html=1;" vertex="1" parent="1">
          <mxGeometry x="180" y="685" width="100" height="105" as="geometry" />
        </mxCell>
        <mxCell id="AKmueOaIY43V8JIsHrLU-57" value="no" style="edgeStyle=orthogonalEdgeStyle;rounded=0;orthogonalLoop=1;jettySize=auto;html=1;" edge="1" parent="1" source="AKmueOaIY43V8JIsHrLU-31" target="Uvgm0Kk2IQCyqfuzoA9w-2">
          <mxGeometry relative="1" as="geometry">
            <Array as="points">
              <mxPoint x="70" y="865" />
            </Array>
          </mxGeometry>
        </mxCell>
        <mxCell id="AKmueOaIY43V8JIsHrLU-62" value="yes" style="edgeStyle=orthogonalEdgeStyle;rounded=0;orthogonalLoop=1;jettySize=auto;html=1;entryX=0.5;entryY=0;entryDx=0;entryDy=0;" edge="1" parent="1" source="AKmueOaIY43V8JIsHrLU-31" target="AKmueOaIY43V8JIsHrLU-55">
          <mxGeometry relative="1" as="geometry">
            <Array as="points">
              <mxPoint x="55" y="1005" />
              <mxPoint x="590" y="1005" />
              <mxPoint x="590" y="825" />
              <mxPoint x="650" y="825" />
            </Array>
          </mxGeometry>
        </mxCell>
        <mxCell id="AKmueOaIY43V8JIsHrLU-31" value="is the hand over this object the one I want to use for said utensial" style="rhombus;whiteSpace=wrap;html=1;" vertex="1" parent="1">
          <mxGeometry y="550" width="110" height="130" as="geometry" />
        </mxCell>
        <mxCell id="AKmueOaIY43V8JIsHrLU-35" value="move the bottom-most hand (one you normally don&#39;t use) off to the side, away from your chest as well" style="whiteSpace=wrap;html=1;" vertex="1" parent="1">
          <mxGeometry x="260" y="885" width="120" height="60" as="geometry" />
        </mxCell>
        <mxCell id="AKmueOaIY43V8JIsHrLU-51" value="no" style="edgeStyle=orthogonalEdgeStyle;rounded=0;orthogonalLoop=1;jettySize=auto;html=1;entryX=0.317;entryY=-0.067;entryDx=0;entryDy=0;entryPerimeter=0;" edge="1" parent="1" source="AKmueOaIY43V8JIsHrLU-21" target="Uvgm0Kk2IQCyqfuzoA9w-2">
          <mxGeometry relative="1" as="geometry" />
        </mxCell>
        <mxCell id="AKmueOaIY43V8JIsHrLU-78" value="" style="edgeStyle=orthogonalEdgeStyle;rounded=0;orthogonalLoop=1;jettySize=auto;html=1;" edge="1" parent="1" source="AKmueOaIY43V8JIsHrLU-55" target="tJNSiagrXFWN7Puzhlna-8">
          <mxGeometry relative="1" as="geometry" />
        </mxCell>
        <mxCell id="AKmueOaIY43V8JIsHrLU-55" value="m" style="shape=offPageConnector;whiteSpace=wrap;html=1;" vertex="1" parent="1">
          <mxGeometry x="610" y="875" width="80" height="80" as="geometry" />
        </mxCell>
        <mxCell id="AKmueOaIY43V8JIsHrLU-63" value="m" style="shape=offPageConnector;whiteSpace=wrap;html=1;" vertex="1" parent="1">
          <mxGeometry x="270" y="667.5" width="80" height="80" as="geometry" />
        </mxCell>
        <mxCell id="AKmueOaIY43V8JIsHrLU-66" value="yes" style="edgeStyle=orthogonalEdgeStyle;rounded=0;orthogonalLoop=1;jettySize=auto;html=1;entryX=0.413;entryY=0.9;entryDx=0;entryDy=0;entryPerimeter=0;" edge="1" parent="1" source="AKmueOaIY43V8JIsHrLU-29" target="AKmueOaIY43V8JIsHrLU-63">
          <mxGeometry relative="1" as="geometry">
            <Array as="points">
              <mxPoint x="260" y="825" />
              <mxPoint x="303" y="825" />
            </Array>
          </mxGeometry>
        </mxCell>
        <mxCell id="AKmueOaIY43V8JIsHrLU-74" value="no" style="edgeStyle=orthogonalEdgeStyle;rounded=0;orthogonalLoop=1;jettySize=auto;html=1;" edge="1" parent="1" source="AKmueOaIY43V8JIsHrLU-68" target="tJNSiagrXFWN7Puzhlna-3">
          <mxGeometry relative="1" as="geometry" />
        </mxCell>
        <mxCell id="AKmueOaIY43V8JIsHrLU-75" value="yes" style="edgeStyle=orthogonalEdgeStyle;rounded=0;orthogonalLoop=1;jettySize=auto;html=1;entryX=1;entryY=0.75;entryDx=0;entryDy=0;" edge="1" parent="1" source="AKmueOaIY43V8JIsHrLU-68" target="tJNSiagrXFWN7Puzhlna-2">
          <mxGeometry relative="1" as="geometry">
            <Array as="points">
              <mxPoint x="720" y="480" />
              <mxPoint x="325" y="480" />
            </Array>
          </mxGeometry>
        </mxCell>
        <mxCell id="AKmueOaIY43V8JIsHrLU-68" value="is the object a utensial?" style="rhombus;whiteSpace=wrap;html=1;" vertex="1" parent="1">
          <mxGeometry x="680" y="360" width="80" height="80" as="geometry" />
        </mxCell>
        <mxCell id="AKmueOaIY43V8JIsHrLU-82" value="yes" style="edgeStyle=orthogonalEdgeStyle;rounded=0;orthogonalLoop=1;jettySize=auto;html=1;" edge="1" parent="1" source="AKmueOaIY43V8JIsHrLU-79" target="AKmueOaIY43V8JIsHrLU-81">
          <mxGeometry relative="1" as="geometry" />
        </mxCell>
        <mxCell id="AKmueOaIY43V8JIsHrLU-96" value="no" style="edgeStyle=orthogonalEdgeStyle;rounded=0;orthogonalLoop=1;jettySize=auto;html=1;" edge="1" parent="1" source="AKmueOaIY43V8JIsHrLU-79" target="AKmueOaIY43V8JIsHrLU-95">
          <mxGeometry relative="1" as="geometry" />
        </mxCell>
        <mxCell id="AKmueOaIY43V8JIsHrLU-79" value="is the object a utensiel?" style="rhombus;whiteSpace=wrap;html=1;" vertex="1" parent="1">
          <mxGeometry x="800" y="1000" width="80" height="80" as="geometry" />
        </mxCell>
        <mxCell id="AKmueOaIY43V8JIsHrLU-84" value="" style="edgeStyle=orthogonalEdgeStyle;rounded=0;orthogonalLoop=1;jettySize=auto;html=1;" edge="1" parent="1" source="AKmueOaIY43V8JIsHrLU-81" target="AKmueOaIY43V8JIsHrLU-83">
          <mxGeometry relative="1" as="geometry" />
        </mxCell>
        <mxCell id="AKmueOaIY43V8JIsHrLU-81" value="reach out grab handel" style="whiteSpace=wrap;html=1;" vertex="1" parent="1">
          <mxGeometry x="780" y="850" width="120" height="60" as="geometry" />
        </mxCell>
        <mxCell id="AKmueOaIY43V8JIsHrLU-86" value="" style="edgeStyle=orthogonalEdgeStyle;rounded=0;orthogonalLoop=1;jettySize=auto;html=1;" edge="1" parent="1" source="AKmueOaIY43V8JIsHrLU-83" target="AKmueOaIY43V8JIsHrLU-85">
          <mxGeometry relative="1" as="geometry" />
        </mxCell>
        <mxCell id="AKmueOaIY43V8JIsHrLU-83" value="rotate object so that handel is faceing you, and object is perpendicular" style="whiteSpace=wrap;html=1;" vertex="1" parent="1">
          <mxGeometry x="780" y="710" width="120" height="60" as="geometry" />
        </mxCell>
        <mxCell id="AKmueOaIY43V8JIsHrLU-88" value="" style="edgeStyle=orthogonalEdgeStyle;rounded=0;orthogonalLoop=1;jettySize=auto;html=1;" edge="1" parent="1" source="AKmueOaIY43V8JIsHrLU-85" target="AKmueOaIY43V8JIsHrLU-87">
          <mxGeometry relative="1" as="geometry" />
        </mxCell>
        <mxCell id="AKmueOaIY43V8JIsHrLU-85" value="wrap hand around handel, grasping firmly." style="whiteSpace=wrap;html=1;" vertex="1" parent="1">
          <mxGeometry x="780" y="570" width="120" height="60" as="geometry" />
        </mxCell>
        <mxCell id="AKmueOaIY43V8JIsHrLU-90" value="" style="edgeStyle=orthogonalEdgeStyle;rounded=0;orthogonalLoop=1;jettySize=auto;html=1;" edge="1" parent="1" source="AKmueOaIY43V8JIsHrLU-87" target="AKmueOaIY43V8JIsHrLU-89">
          <mxGeometry relative="1" as="geometry" />
        </mxCell>
        <mxCell id="AKmueOaIY43V8JIsHrLU-87" value="lift 5 centimeters" style="whiteSpace=wrap;html=1;" vertex="1" parent="1">
          <mxGeometry x="980" y="570" width="120" height="60" as="geometry" />
        </mxCell>
        <mxCell id="AKmueOaIY43V8JIsHrLU-92" value="" style="edgeStyle=orthogonalEdgeStyle;rounded=0;orthogonalLoop=1;jettySize=auto;html=1;" edge="1" parent="1" source="AKmueOaIY43V8JIsHrLU-89" target="AKmueOaIY43V8JIsHrLU-91">
          <mxGeometry relative="1" as="geometry" />
        </mxCell>
        <mxCell id="AKmueOaIY43V8JIsHrLU-89" value="move untill it&#39;s not over the counter/ table" style="whiteSpace=wrap;html=1;" vertex="1" parent="1">
          <mxGeometry x="1180" y="570" width="120" height="60" as="geometry" />
        </mxCell>
        <mxCell id="AKmueOaIY43V8JIsHrLU-94" value="" style="edgeStyle=orthogonalEdgeStyle;rounded=0;orthogonalLoop=1;jettySize=auto;html=1;" edge="1" parent="1" source="AKmueOaIY43V8JIsHrLU-91" target="AKmueOaIY43V8JIsHrLU-93">
          <mxGeometry relative="1" as="geometry" />
        </mxCell>
        <mxCell id="AKmueOaIY43V8JIsHrLU-91" value="move arms so that the utensiel has the handel pointing up, and is permendicular to the floor." style="whiteSpace=wrap;html=1;" vertex="1" parent="1">
          <mxGeometry x="1180" y="710" width="120" height="70" as="geometry" />
        </mxCell>
        <mxCell id="AKmueOaIY43V8JIsHrLU-93" value="G&lt;sub&gt;1&lt;/sub&gt;" style="shape=offPageConnector;whiteSpace=wrap;html=1;" vertex="1" parent="1">
          <mxGeometry x="1200" y="830" width="80" height="80" as="geometry" />
        </mxCell>
        <mxCell id="AKmueOaIY43V8JIsHrLU-116" value="" style="edgeStyle=orthogonalEdgeStyle;rounded=0;orthogonalLoop=1;jettySize=auto;html=1;" edge="1" parent="1" source="AKmueOaIY43V8JIsHrLU-95" target="AKmueOaIY43V8JIsHrLU-115">
          <mxGeometry relative="1" as="geometry" />
        </mxCell>
        <mxCell id="AKmueOaIY43V8JIsHrLU-95" value="move hand sidways towards object untill you touch the object" style="whiteSpace=wrap;html=1;" vertex="1" parent="1">
          <mxGeometry x="940" y="1010" width="120" height="60" as="geometry" />
        </mxCell>
        <mxCell id="AKmueOaIY43V8JIsHrLU-120" value="" style="edgeStyle=orthogonalEdgeStyle;rounded=0;orthogonalLoop=1;jettySize=auto;html=1;" edge="1" parent="1" source="AKmueOaIY43V8JIsHrLU-115" target="AKmueOaIY43V8JIsHrLU-119">
          <mxGeometry relative="1" as="geometry" />
        </mxCell>
        <mxCell id="AKmueOaIY43V8JIsHrLU-115" value="curve fingers around object, shifting to grab more if grasp" style="whiteSpace=wrap;html=1;" vertex="1" parent="1">
          <mxGeometry x="1140" y="1010" width="120" height="60" as="geometry" />
        </mxCell>
        <mxCell id="AKmueOaIY43V8JIsHrLU-129" value="" style="edgeStyle=orthogonalEdgeStyle;rounded=0;orthogonalLoop=1;jettySize=auto;html=1;" edge="1" parent="1" source="AKmueOaIY43V8JIsHrLU-119" target="AKmueOaIY43V8JIsHrLU-127">
          <mxGeometry relative="1" as="geometry" />
        </mxCell>
        <mxCell id="AKmueOaIY43V8JIsHrLU-119" value="m" style="shape=offPageConnector;whiteSpace=wrap;html=1;" vertex="1" parent="1">
          <mxGeometry x="1300" y="1000" width="80" height="80" as="geometry" />
        </mxCell>
        <mxCell id="AKmueOaIY43V8JIsHrLU-131" value="" style="edgeStyle=orthogonalEdgeStyle;rounded=0;orthogonalLoop=1;jettySize=auto;html=1;" edge="1" parent="1" source="AKmueOaIY43V8JIsHrLU-121" target="AKmueOaIY43V8JIsHrLU-123">
          <mxGeometry relative="1" as="geometry" />
        </mxCell>
        <mxCell id="AKmueOaIY43V8JIsHrLU-121" value="move hand sideways twords object untill touching it" style="whiteSpace=wrap;html=1;" vertex="1" parent="1">
          <mxGeometry x="1410" y="895" width="120" height="60" as="geometry" />
        </mxCell>
        <mxCell id="AKmueOaIY43V8JIsHrLU-133" value="" style="edgeStyle=orthogonalEdgeStyle;rounded=0;orthogonalLoop=1;jettySize=auto;html=1;" edge="1" parent="1" source="AKmueOaIY43V8JIsHrLU-123" target="AKmueOaIY43V8JIsHrLU-132">
          <mxGeometry relative="1" as="geometry" />
        </mxCell>
        <mxCell id="AKmueOaIY43V8JIsHrLU-123" value="tighten grip on object" style="whiteSpace=wrap;html=1;" vertex="1" parent="1">
          <mxGeometry x="1410" y="800" width="120" height="60" as="geometry" />
        </mxCell>
        <mxCell id="AKmueOaIY43V8JIsHrLU-130" value="" style="edgeStyle=orthogonalEdgeStyle;rounded=0;orthogonalLoop=1;jettySize=auto;html=1;" edge="1" parent="1" source="AKmueOaIY43V8JIsHrLU-127" target="AKmueOaIY43V8JIsHrLU-121">
          <mxGeometry relative="1" as="geometry" />
        </mxCell>
        <mxCell id="AKmueOaIY43V8JIsHrLU-127" value="rotate hand 90 degrees such that palm is faceing up" style="whiteSpace=wrap;html=1;" vertex="1" parent="1">
          <mxGeometry x="1410" y="1010" width="120" height="60" as="geometry" />
        </mxCell>
        <mxCell id="AKmueOaIY43V8JIsHrLU-135" value="" style="edgeStyle=orthogonalEdgeStyle;rounded=0;orthogonalLoop=1;jettySize=auto;html=1;" edge="1" parent="1" source="AKmueOaIY43V8JIsHrLU-132" target="AKmueOaIY43V8JIsHrLU-134">
          <mxGeometry relative="1" as="geometry" />
        </mxCell>
        <mxCell id="AKmueOaIY43V8JIsHrLU-132" value="move the hand surrounding the object up 1 cm" style="whiteSpace=wrap;html=1;" vertex="1" parent="1">
          <mxGeometry x="1410" y="660" width="120" height="60" as="geometry" />
        </mxCell>
        <mxCell id="AKmueOaIY43V8JIsHrLU-137" value="" style="edgeStyle=orthogonalEdgeStyle;rounded=0;orthogonalLoop=1;jettySize=auto;html=1;" edge="1" parent="1" source="AKmueOaIY43V8JIsHrLU-134" target="AKmueOaIY43V8JIsHrLU-136">
          <mxGeometry relative="1" as="geometry" />
        </mxCell>
        <mxCell id="AKmueOaIY43V8JIsHrLU-134" value="move your other hand so that your palm is under the object" style="whiteSpace=wrap;html=1;" vertex="1" parent="1">
          <mxGeometry x="1410" y="520" width="120" height="60" as="geometry" />
        </mxCell>
        <mxCell id="AKmueOaIY43V8JIsHrLU-139" value="" style="edgeStyle=orthogonalEdgeStyle;rounded=0;orthogonalLoop=1;jettySize=auto;html=1;" edge="1" parent="1" source="AKmueOaIY43V8JIsHrLU-136" target="AKmueOaIY43V8JIsHrLU-138">
          <mxGeometry relative="1" as="geometry" />
        </mxCell>
        <mxCell id="AKmueOaIY43V8JIsHrLU-136" value="move bottom hand away from bot your chest and your other hand at a 45 degree angle, untill fingers are outside object" style="whiteSpace=wrap;html=1;" vertex="1" parent="1">
          <mxGeometry x="1410" y="380" width="120" height="80" as="geometry" />
        </mxCell>
        <mxCell id="AKmueOaIY43V8JIsHrLU-141" value="" style="edgeStyle=orthogonalEdgeStyle;rounded=0;orthogonalLoop=1;jettySize=auto;html=1;" edge="1" parent="1" source="AKmueOaIY43V8JIsHrLU-138" target="AKmueOaIY43V8JIsHrLU-140">
          <mxGeometry relative="1" as="geometry" />
        </mxCell>
        <mxCell id="AKmueOaIY43V8JIsHrLU-138" value="wrap those fingers around the object" style="whiteSpace=wrap;html=1;" vertex="1" parent="1">
          <mxGeometry x="1410" y="250" width="120" height="60" as="geometry" />
        </mxCell>
        <mxCell id="AKmueOaIY43V8JIsHrLU-144" value="" style="edgeStyle=orthogonalEdgeStyle;rounded=0;orthogonalLoop=1;jettySize=auto;html=1;" edge="1" parent="1" source="AKmueOaIY43V8JIsHrLU-140" target="AKmueOaIY43V8JIsHrLU-143">
          <mxGeometry relative="1" as="geometry" />
        </mxCell>
        <mxCell id="AKmueOaIY43V8JIsHrLU-140" value="move that hand twords your body in an arc, maintaining contact with the object, untill your hands are in a straight line (should be a 45 degree arc)" style="whiteSpace=wrap;html=1;" vertex="1" parent="1">
          <mxGeometry x="1410" y="80" width="120" height="120" as="geometry" />
        </mxCell>
        <mxCell id="AKmueOaIY43V8JIsHrLU-147" style="edgeStyle=orthogonalEdgeStyle;rounded=0;orthogonalLoop=1;jettySize=auto;html=1;" edge="1" parent="1" source="AKmueOaIY43V8JIsHrLU-143" target="AKmueOaIY43V8JIsHrLU-93">
          <mxGeometry relative="1" as="geometry">
            <Array as="points">
              <mxPoint x="1270" y="500" />
              <mxPoint x="1330" y="500" />
              <mxPoint x="1330" y="870" />
            </Array>
          </mxGeometry>
        </mxCell>
        <mxCell id="AKmueOaIY43V8JIsHrLU-143" value="lift object up 3 cm" style="whiteSpace=wrap;html=1;" vertex="1" parent="1">
          <mxGeometry x="1210" y="110" width="120" height="60" as="geometry" />
        </mxCell>
        <mxCell id="PXn4jD1XUBPjTQ0HKNMs-4" value="yes" style="edgeStyle=orthogonalEdgeStyle;rounded=0;orthogonalLoop=1;jettySize=auto;html=1;" edge="1" parent="1" source="PXn4jD1XUBPjTQ0HKNMs-1" target="PXn4jD1XUBPjTQ0HKNMs-3">
          <mxGeometry relative="1" as="geometry" />
        </mxCell>
        <mxCell id="PXn4jD1XUBPjTQ0HKNMs-5" value="no" style="edgeStyle=orthogonalEdgeStyle;rounded=0;orthogonalLoop=1;jettySize=auto;html=1;" edge="1" parent="1" source="PXn4jD1XUBPjTQ0HKNMs-1" target="AKmueOaIY43V8JIsHrLU-10">
          <mxGeometry relative="1" as="geometry" />
        </mxCell>
        <mxCell id="PXn4jD1XUBPjTQ0HKNMs-1" value="more than one object?" style="rhombus;whiteSpace=wrap;html=1;" vertex="1" parent="1">
          <mxGeometry x="40" y="100" width="80" height="80" as="geometry" />
        </mxCell>
        <mxCell id="PXn4jD1XUBPjTQ0HKNMs-6" style="edgeStyle=orthogonalEdgeStyle;rounded=0;orthogonalLoop=1;jettySize=auto;html=1;" edge="1" parent="1" source="PXn4jD1XUBPjTQ0HKNMs-3" target="AKmueOaIY43V8JIsHrLU-10">
          <mxGeometry relative="1" as="geometry">
            <Array as="points">
              <mxPoint x="190" y="240" />
            </Array>
          </mxGeometry>
        </mxCell>
        <mxCell id="PXn4jD1XUBPjTQ0HKNMs-3" value="only pay attention to the closest one" style="whiteSpace=wrap;html=1;" vertex="1" parent="1">
          <mxGeometry x="170" y="100" width="120" height="60" as="geometry" />
        </mxCell>
      </root>
    </mxGraphModel>
  </diagram>
</mxfile>
